<svg style="display:none">
	<symbol id="Circle" xmlns="http://www.w3.org/2000/svg" viewBox="0 0 24 24" stroke="currentColor" fill="currentColor" stroke-linecap="round" stroke-linejoin="round"><path stroke="none" d="M0 0h24v24H0z" fill="none"/><circle cx="12" cy="12" r="9" /></symbol>
	<symbol id="ChevronLeft" xmlns="http://www.w3.org/2000/svg" fill="none" viewBox="0 0 24 24" stroke="currentColor"><path stroke-linecap="round" stroke-linejoin="round" d="M15.75 19.5L8.25 12l7.5-7.5" /></symbol>
	<symbol id="ChevronRight" xmlns="http://www.w3.org/2000/svg" fill="none" viewBox="0 0 24 24" stroke="currentColor"><path stroke-linecap="round" stroke-linejoin="round" d="M8.25 4.5l7.5 7.5-7.5 7.5" /></symbol>
	<symbol id="QuestionMarkCircle" xmlns="http://www.w3.org/2000/svg" fill="none" viewBox="0 0 24 24" stroke="currentColor"><path stroke-linecap="round" stroke-linejoin="round" d="M9.879 7.519c1.171-1.025 3.071-1.025 4.242 0 1.172 1.025 1.172 2.687 0 3.712-.203.179-.43.326-.67.442-.745.361-1.45.999-1.45 1.827v.75M21 12a9 9 0 11-18 0 9 9 0 0118 0zm-9 5.25h.008v.008H12v-.008z" /></symbol>
	<symbol id="User" xmlns="http://www.w3.org/2000/svg" viewBox="0 0 21 20" fill="none" stroke="currentColor"><path fill-rule="evenodd" clip-rule="evenodd" d="M10.8965 3.33366C9.51578 3.33366 8.39649 4.45295 8.39649 5.83366C8.39649 7.21437 9.51578 8.33366 10.8965 8.33366C12.2772 8.33366 13.3965 7.21437 13.3965 5.83366C13.3965 4.45295 12.2772 3.33366 10.8965 3.33366ZM6.72982 5.83366C6.72982 3.53247 8.5953 1.66699 10.8965 1.66699C13.1977 1.66699 15.0632 3.53247 15.0632 5.83366C15.0632 8.13484 13.1977 10.0003 10.8965 10.0003C8.5953 10.0003 6.72982 8.13484 6.72982 5.83366ZM9.22982 13.3337C8.56678 13.3337 7.9309 13.597 7.46206 14.0659C6.99321 14.5347 6.72982 15.1706 6.72982 15.8337V17.5003C6.72982 17.9606 6.35673 18.3337 5.89649 18.3337C5.43625 18.3337 5.06316 17.9606 5.06316 17.5003V15.8337C5.06316 14.7286 5.50214 13.6688 6.28354 12.8874C7.06495 12.106 8.12475 11.667 9.22982 11.667H12.5632C13.6682 11.667 14.728 12.106 15.5094 12.8874C16.2908 13.6688 16.7298 14.7286 16.7298 15.8337V17.5003C16.7298 17.9606 16.3567 18.3337 15.8965 18.3337C15.4363 18.3337 15.0632 17.9606 15.0632 17.5003V15.8337C15.0632 15.1706 14.7998 14.5347 14.3309 14.0659C13.8621 13.597 13.2262 13.3337 12.5632 13.3337H9.22982Z" fill="#161616"/></symbol>
	<symbol id="ShoppingCart" xmlns="http://www.w3.org/2000/svg" viewBox="0 0 21 20" fill="none" stroke="currentColor"><path d="M15.9742 5.00033H14.2989C14.2989 3.15866 12.7995 1.66699 10.9483 1.66699C9.09707 1.66699 7.59767 3.15866 7.59767 5.00033H5.92238C5.00096 5.00033 4.24708 5.75033 4.24708 6.66699V16.667C4.24708 17.5837 5.00096 18.3337 5.92238 18.3337H15.9742C16.8956 18.3337 17.6495 17.5837 17.6495 16.667V6.66699C17.6495 5.75033 16.8956 5.00033 15.9742 5.00033ZM10.9483 3.33366C11.8697 3.33366 12.6236 4.08366 12.6236 5.00033H9.27297C9.27297 4.08366 10.0269 3.33366 10.9483 3.33366ZM15.9742 16.667H5.92238V6.66699H7.59767V8.33366C7.59767 8.79199 7.97462 9.16699 8.43532 9.16699C8.89603 9.16699 9.27297 8.79199 9.27297 8.33366V6.66699H12.6236V8.33366C12.6236 8.79199 13.0005 9.16699 13.4612 9.16699C13.9219 9.16699 14.2989 8.79199 14.2989 8.33366V6.66699H15.9742V16.667Z" fill="#161616"/></symbol>
	<symbol id="Bars3" xmlns="http://www.w3.org/2000/svg" viewBox="0 0 20 20" stroke="currentColor" fill="none"><path fill-rule="evenodd" clip-rule="evenodd" d="M2.5 5.00033C2.5 4.54009 2.8731 4.16699 3.33333 4.16699H16.6667C17.1269 4.16699 17.5 4.54009 17.5 5.00033C17.5 5.46056 17.1269 5.83366 16.6667 5.83366H3.33333C2.8731 5.83366 2.5 5.46056 2.5 5.00033ZM2.5 10.0003C2.5 9.54009 2.8731 9.16699 3.33333 9.16699H16.6667C17.1269 9.16699 17.5 9.54009 17.5 10.0003C17.5 10.4606 17.1269 10.8337 16.6667 10.8337H3.33333C2.8731 10.8337 2.5 10.4606 2.5 10.0003ZM2.5 15.0003C2.5 14.5401 2.8731 14.167 3.33333 14.167H16.6667C17.1269 14.167 17.5 14.5401 17.5 15.0003C17.5 15.4606 17.1269 15.8337 16.6667 15.8337H3.33333C2.8731 15.8337 2.5 15.4606 2.5 15.0003Z" fill="#161616"/></symbol>
	<symbol id="Heart" xmlns="http://www.w3.org/2000/svg" fill="none" viewBox="0 0 24 24" stroke="currentColor"><path stroke-linecap="round" stroke-linejoin="round" d="M21 8.25c0-2.485-2.099-4.5-4.688-4.5-1.935 0-3.597 1.126-4.312 2.733-.715-1.607-2.377-2.733-4.313-2.733C5.1 3.75 3 5.765 3 8.25c0 7.22 9 12 9 12s9-4.78 9-12z" /></symbol>
	<symbol id="MagnifyingGlass" xmlns="http://www.w3.org/2000/svg" viewBox="0 0 18 18" stroke="currentColor" fill="currentColor"><path fill-rule="evenodd" clip-rule="evenodd" d="M7.22982 2.33366C4.4684 2.33366 2.22982 4.57223 2.22982 7.33366C2.22982 10.0951 4.4684 12.3337 7.22982 12.3337C9.99124 12.3337 12.2298 10.0951 12.2298 7.33366C12.2298 4.57223 9.99124 2.33366 7.22982 2.33366ZM0.563156 7.33366C0.563156 3.65176 3.54792 0.666992 7.22982 0.666992C10.9117 0.666992 13.8965 3.65176 13.8965 7.33366C13.8965 8.87425 13.3739 10.2928 12.4964 11.4217L16.9857 15.9111C17.3112 16.2365 17.3112 16.7641 16.9857 17.0896C16.6603 17.415 16.1327 17.415 15.8072 17.0896L11.3179 12.6002C10.189 13.4778 8.77041 14.0003 7.22982 14.0003C3.54792 14.0003 0.563156 11.0156 0.563156 7.33366Z" /></symbol>
	<symbol id="XMark" xmlns="http://www.w3.org/2000/svg" fill="none" viewBox="0 0 24 24" stroke="currentColor"><path stroke-linecap="round" stroke-linejoin="round" d="M6 18L18 6M6 6l12 12" /></symbol>
	<symbol id="Elo" xmlns="http://www.w3.org/2000/svg" viewBox="0 0 40 14" stroke="currentColor" fill="none"><path d="M6.57655 3.09309C6.98496 2.95495 7.4234 2.88288 7.87985 2.88288C9.87385 2.88288 11.5375 4.3003 11.9159 6.18018L14.7387 5.6036C14.0901 2.40841 11.2672 0 7.87985 0C7.10508 0 6.36033 0.126126 5.66364 0.36036L6.57655 3.09309Z" fill="#F4F6F5"/><path d="M3.24323 12.2463L5.15314 10.0841C4.30029 9.32733 3.76576 8.22823 3.76576 6.997C3.76576 5.77178 4.30029 4.66667 5.15314 3.91592L3.24323 1.75977C1.79579 3.04505 0.882874 4.91292 0.882874 7.00301C0.882874 9.08709 1.79579 10.961 3.24323 12.2463Z" fill="#F4F6F5"/><path d="M11.9159 7.82617C11.5315 9.70605 9.87387 11.1175 7.87988 11.1175C7.42342 11.1175 6.98498 11.0454 6.57057 10.9073L5.65765 13.64C6.35435 13.8742 7.1051 14.0003 7.87988 14.0003C11.2673 14.0003 14.0901 11.5979 14.7387 8.40275L11.9159 7.82617Z" fill="#F4F6F5"/><path d="M24.1441 9.75962C23.6757 10.2161 23.045 10.4924 22.3484 10.4803C21.8679 10.4743 21.4234 10.3302 21.0511 10.0899L20.1141 11.5794C20.7568 11.9818 21.5075 12.2221 22.3243 12.2341C23.5075 12.2521 24.5886 11.7836 25.3754 11.0209L24.1441 9.75962ZM22.4505 3.68755C20.0961 3.65151 18.1502 5.5374 18.1141 7.89175C18.1021 8.77463 18.3544 9.60346 18.8048 10.2881L26.5405 6.97884C26.1081 5.12298 24.4505 3.72358 22.4505 3.68755ZM19.8859 8.22809C19.8739 8.13199 19.8679 8.02989 19.8679 7.92779C19.8919 6.5404 21.033 5.42929 22.4204 5.45331C23.1772 5.46532 23.8499 5.80767 24.3003 6.34821L19.8859 8.22809ZM28.973 1.76562V10.0119L30.4024 10.6065L29.7237 12.2341L28.3063 11.6455C27.988 11.5074 27.7718 11.2972 27.6096 11.0569C27.4535 10.8167 27.3333 10.4803 27.3333 10.0359V1.76562H28.973Z" fill="#F4F6F5"/><path d="M34.1321 5.57925C34.3844 5.49516 34.6487 5.45312 34.9309 5.45312C36.1502 5.45312 37.1592 6.31798 37.3934 7.46513L39.1171 7.11078C38.7207 5.15882 36.997 3.69336 34.9309 3.69336C34.4565 3.69336 34 3.77144 33.5796 3.90958L34.1321 5.57925ZM32.0961 11.1588L33.2613 9.84351C32.7387 9.38105 32.4144 8.70837 32.4144 7.95762C32.4144 7.20687 32.7448 6.5342 33.2613 6.07774L32.0961 4.76243C31.2132 5.54321 30.6547 6.69036 30.6547 7.96363C30.6547 9.2369 31.2132 10.378 32.0961 11.1588ZM37.3934 8.46813C37.1592 9.61528 36.1442 10.4801 34.9309 10.4801C34.6547 10.4801 34.3844 10.4321 34.1321 10.348L33.5736 12.0177C34 12.1618 34.4565 12.2399 34.9309 12.2399C36.997 12.2399 38.7207 10.7744 39.1171 8.82249L37.3934 8.46813Z" fill="#F4F6F5"/></symbol>
	<symbol id="Mastercard" xmlns="http://www.w3.org/2000/svg" viewBox="0 0 26 20" fill="none" stroke="currentColor"><g clip-path="url(#clip0_81_156)"><path d="M4.77191 19.9552V18.6263C4.77191 18.1167 4.46174 17.7846 3.95265 17.7846C3.68527 17.7846 3.39918 17.8734 3.19971 18.159C3.04463 17.9151 2.82538 17.7846 2.49116 17.7846C2.36689 17.7793 2.24323 17.8048 2.13124 17.8589C2.01926 17.913 1.92244 17.9941 1.84944 18.0948V17.8274H1.42859V19.9536H1.84944V18.737C1.84944 18.3627 2.07083 18.1836 2.381 18.1836C2.69116 18.1836 2.86816 18.383 2.86816 18.737V19.9552H3.28902V18.737C3.28902 18.3627 3.51041 18.1836 3.82057 18.1836C4.13073 18.1836 4.30773 18.383 4.30773 18.737V19.9552H4.77191ZM11.6821 17.8509H10.9067V17.2092H10.4869V17.8509H10.0441V18.2253H10.4869V19.2242C10.4869 19.7114 10.6639 19.9996 11.1954 19.9996C11.3968 19.9954 11.5941 19.9422 11.7703 19.8445L11.6371 19.4702C11.5177 19.5449 11.3791 19.5833 11.2382 19.5809C11.0168 19.5809 10.9061 19.4477 10.9061 19.2263V18.2082H11.6815V17.8536L11.6821 17.8509ZM15.6243 17.7846C15.5097 17.7821 15.3964 17.8093 15.2954 17.8637C15.1945 17.918 15.1093 17.9977 15.0484 18.0948V17.8274H14.6275V19.9536H15.0484V18.7595C15.0484 18.405 15.2254 18.1836 15.5136 18.1836C15.6109 18.1875 15.7074 18.2024 15.8013 18.2279L15.9345 17.829C15.8329 17.8034 15.729 17.7885 15.6243 17.7846ZM9.66656 18.006C9.44517 17.8509 9.13501 17.7846 8.80292 17.7846C8.27137 17.7846 7.93928 18.0285 7.93928 18.4493C7.93928 18.8039 8.18314 19.0028 8.64784 19.0697L8.86923 19.0916C9.11308 19.136 9.26816 19.2247 9.26816 19.3354C9.26816 19.4905 9.09116 19.6028 8.75854 19.6028C8.50456 19.608 8.2558 19.5303 8.04998 19.3814L7.82859 19.7135C8.13875 19.9349 8.51522 19.9809 8.73768 19.9809C9.358 19.9809 9.69009 19.6932 9.69009 19.2943C9.69009 18.9199 9.42271 18.7408 8.95907 18.6739L8.73768 18.652C8.53822 18.6301 8.36335 18.5632 8.36335 18.4306C8.36335 18.2755 8.54036 18.1632 8.78421 18.1632C9.05159 18.1632 9.31576 18.2739 9.44891 18.3402L9.66656 18.006ZM16.0896 18.8921C16.0896 19.5338 16.5104 19.9996 17.197 19.9996C17.5072 19.9996 17.7286 19.9333 17.95 19.7558L17.7286 19.4237C17.5718 19.5506 17.3768 19.6209 17.1751 19.6231C16.8008 19.6231 16.5104 19.3354 16.5104 18.9146C16.5104 18.4937 16.797 18.2082 17.1751 18.2082C17.3768 18.2104 17.5718 18.2807 17.7286 18.4076L17.95 18.0755C17.7286 17.8985 17.5072 17.8317 17.197 17.8317C16.5323 17.7873 16.0896 18.2525 16.0896 18.8948V18.8921ZM13.1216 17.7846C12.5013 17.7846 12.0805 18.2274 12.0805 18.8921C12.0805 19.5568 12.5232 19.9996 13.1655 19.9996C13.4779 20.0062 13.7831 19.9046 14.0291 19.7119L13.8077 19.4017C13.6298 19.5396 13.4125 19.6172 13.1874 19.6231C12.8997 19.6231 12.5896 19.4461 12.5457 19.0697H14.1184V18.8927C14.1184 18.2279 13.7195 17.7852 13.1216 17.7852V17.7846ZM13.0997 18.1836C13.4099 18.1836 13.6313 18.383 13.6532 18.7151H12.5019C12.5682 18.405 12.7692 18.1836 13.0997 18.1836ZM7.36335 18.8921V17.829H6.94249V18.0964C6.78741 17.8969 6.56816 17.7862 6.25586 17.7862C5.658 17.7862 5.21469 18.2515 5.21469 18.8937C5.21469 19.536 5.65747 20.0012 6.25586 20.0012C6.56602 20.0012 6.78741 19.8905 6.94249 19.691V19.9584H7.36335V18.8921ZM5.658 18.8921C5.658 18.4932 5.90185 18.1836 6.32271 18.1836C6.72164 18.1836 6.96442 18.4937 6.96442 18.8921C6.96442 19.313 6.69704 19.6007 6.32271 19.6007C5.90185 19.6226 5.658 19.2905 5.658 18.8921ZM22.0259 17.7846C21.9113 17.7821 21.798 17.8093 21.697 17.8637C21.5961 17.918 21.5109 17.9977 21.45 18.0948V17.8274H21.0291V19.9536H21.4495V18.7595C21.4495 18.405 21.6265 18.1836 21.9147 18.1836C22.012 18.1875 22.1085 18.2024 22.2024 18.2279L22.3355 17.829C22.234 17.8034 22.13 17.7885 22.0254 17.7846H22.0259ZM20.3869 18.8921V17.829H19.966V18.0964C19.8109 17.8969 19.5917 17.7862 19.2794 17.7862C18.6815 17.7862 18.2382 18.2515 18.2382 18.8937C18.2382 19.536 18.681 20.0012 19.2794 20.0012C19.5896 20.0012 19.8109 19.8905 19.966 19.691V19.9584H20.3869V18.8921ZM18.6815 18.8921C18.6815 18.4932 18.9254 18.1836 19.3462 18.1836C19.7452 18.1836 19.988 18.4937 19.988 18.8921C19.988 19.313 19.7206 19.6007 19.3462 19.6007C18.9254 19.6226 18.6815 19.2905 18.6815 18.8921ZM24.6618 18.8921V16.9873H24.2409V18.0948C24.0858 17.8953 23.8666 17.7846 23.5543 17.7846C22.9564 17.7846 22.5131 18.2499 22.5131 18.8921C22.5131 19.5344 22.9559 19.9996 23.5543 19.9996C23.8644 19.9996 24.0858 19.8889 24.2409 19.6894V19.9568H24.6618V18.8921ZM22.9564 18.8921C22.9564 18.4932 23.2003 18.1836 23.6211 18.1836C24.02 18.1836 24.2628 18.4937 24.2628 18.8921C24.2628 19.313 23.9954 19.6007 23.6211 19.6007C23.1997 19.6231 22.9559 19.291 22.9559 18.8921H22.9564Z" fill="#F4F6F5"/><path d="M9.95478 7.97327C9.95505 6.76731 10.2281 5.57704 10.7536 4.49159C11.279 3.40613 12.0433 2.45361 12.989 1.70535C11.8128 0.780601 10.4002 0.205442 8.9126 0.045623C7.42499 -0.114196 5.92242 0.147775 4.57667 0.801588C3.23091 1.4554 2.09627 2.47468 1.30244 3.74289C0.508619 5.01111 0.0876465 6.47709 0.0876465 7.97327C0.0876465 9.46944 0.508619 10.9354 1.30244 12.2036C2.09627 13.4719 3.23091 14.4911 4.57667 15.1449C5.92242 15.7988 7.42499 16.0607 8.9126 15.9009C10.4002 15.7411 11.8128 15.1659 12.989 14.2412C12.0433 13.4929 11.279 12.5404 10.7536 11.4549C10.2281 10.3695 9.95505 9.17922 9.95478 7.97327Z" fill="#F4F6F5"/><path d="M25.9019 7.97297C25.9029 9.46805 25.4832 10.9333 24.6907 12.201C23.8982 13.4688 22.7648 14.4879 21.4203 15.1418C20.0758 15.7957 18.5744 16.0579 17.0879 15.8986C15.6013 15.7393 14.1896 15.1648 13.0142 14.2409C13.9601 13.4928 14.7245 12.5403 15.25 11.4548C15.7755 10.3693 16.0485 9.17898 16.0485 7.97297C16.0485 6.76696 15.7755 5.5766 15.25 4.4911C14.7245 3.4056 13.9601 2.45312 13.0142 1.70506C14.1896 0.781104 15.6013 0.20662 17.0879 0.0473072C18.5744 -0.112005 20.0758 0.150287 21.4203 0.804186C22.7648 1.45808 23.8982 2.47719 24.6907 3.74493C25.4832 5.01268 25.9029 6.47789 25.9019 7.97297Z" fill="#F4F6F5" fill-opacity="0.4"/><path fill-rule="evenodd" clip-rule="evenodd" d="M13.0141 1.70508H12.989C12.0432 2.45333 11.279 3.40585 10.7536 4.49131C10.2281 5.57677 9.95504 6.76704 9.95477 7.97299C9.95504 9.17894 10.2281 10.3692 10.7536 11.4547C11.279 12.5401 12.0433 13.4926 12.989 14.2409H13.0141C13.0141 14.2409 13.0141 14.2409 13.0141 14.2409C13.9601 13.4928 14.7245 12.5404 15.25 11.4549C15.7755 10.3694 16.0484 9.17899 16.0484 7.97299C16.0484 6.76698 15.7755 5.57661 15.25 4.49111C14.7245 3.40561 13.9601 2.45314 13.0141 1.70508Z" fill="#F4F6F5" fill-opacity="0.6"/></g><defs><clipPath id="clip0_81_156"><rect width="25.8027" height="20" fill="white" transform="translate(0.0986328)"/></clipPath></defs></symbol>
	<symbol id="Visa" xmlns="http://www.w3.org/2000/svg" viewBox="0 0 40 12" fill="none" stroke="currentColor"><path d="M14.2514 11.8628L16.2325 0.237305H19.4012L17.4187 11.8628H14.2514Z" fill="#F4F6F5"/><path d="M28.8667 0.488266C28.2389 0.252744 27.2552 0 26.0267 0C22.8956 0 20.6902 1.57674 20.6714 3.83653C20.6537 5.50698 22.2459 6.43886 23.4479 6.99494C24.6813 7.56486 25.0959 7.92824 25.09 8.437C25.0821 9.21631 24.105 9.57221 23.1942 9.57221C21.926 9.57221 21.2522 9.39601 20.2115 8.96208L19.8031 8.77728L19.3585 11.3797C20.0986 11.7043 21.4671 11.9854 22.8882 12C26.2191 12 28.3815 10.4413 28.4061 8.02807C28.4179 6.70556 27.5737 5.69921 25.7455 4.86948C24.638 4.33169 23.9597 3.97282 23.9669 3.42826C23.9669 2.94504 24.541 2.42833 25.7816 2.42833C26.8177 2.41223 27.5684 2.6382 28.1533 2.87372L28.4372 3.00787L28.8667 0.488266Z" fill="#F4F6F5"/><path d="M37.0208 0.237305H34.5723C33.8138 0.237305 33.2461 0.444322 32.913 1.20137L28.2071 11.8552H31.5345C31.5345 11.8552 32.0785 10.4228 32.2015 10.1082C32.5651 10.1082 35.7976 10.1132 36.2597 10.1132C36.3545 10.5202 36.6452 11.8552 36.6452 11.8552H39.5855L37.0208 0.237305ZM33.136 7.74409C33.3981 7.07428 34.3985 4.49428 34.3985 4.49428C34.3798 4.52522 34.6587 3.82121 34.8186 3.38473L35.0328 4.38703C35.0328 4.38703 35.6395 7.16205 35.7663 7.74391H33.136V7.74409Z" fill="#F4F6F5"/><path d="M0.45503 0.237305L0.414551 0.479138C1.66716 0.782359 2.78593 1.22123 3.76542 1.76717L6.57706 11.8441L9.92966 11.8404L14.9183 0.237305H11.5615L8.45929 8.16502L8.12885 6.55384C8.11337 6.50406 8.09654 6.4542 8.07932 6.40422L7.00087 1.21879C6.80912 0.482646 6.25282 0.262959 5.56461 0.237305H0.45503Z" fill="#F4F6F5"/></symbol>		
	<symbol id="Pix" viewBox="0 0 512 512" xmlns="http://www.w3.org/2000/svg" fill="none" stroke="currentColor"> <defs/> <g fill="currentColor" fill-rule="evenodd"> <path d="M393.072 391.897c-20.082 0-38.969-7.81-53.176-22.02l-77.069-77.067c-5.375-5.375-14.773-5.395-20.17 0l-76.784 76.786c-14.209 14.207-33.095 22.019-53.179 22.019h-9.247l97.521 97.52c30.375 30.375 79.614 30.375 109.988 0l97.239-97.238h-15.123zm-105.049 74.327c-8.55 8.53-19.93 13.25-32.05 13.25h-.02c-12.12 0-23.522-4.721-32.05-13.25l-56.855-56.855c7.875-4.613 15.165-10.248 21.758-16.84l63.948-63.948 64.23 64.23c7.637 7.66 16.188 14.013 25.478 18.952l-54.439 54.46zM310.958 22.78c-30.374-30.374-79.613-30.374-109.988 0l-97.52 97.52h9.247c20.082 0 38.97 7.834 53.178 22.02l76.784 76.785c5.57 5.592 14.622 5.57 20.17 0l77.069-77.068c14.207-14.187 33.094-22.02 53.176-22.02h15.123l-97.239-97.237zm6.028 96.346l-64.23 64.23-63.97-63.97c-6.593-6.592-13.86-12.206-21.736-16.818l56.853-56.877c17.69-17.645 46.476-17.668 64.121 0l54.44 54.461c-9.292 4.961-17.842 11.315-25.479 18.974h.001z"/> <path d="M489.149 200.97l-58.379-58.377h-37.706c-13.838 0-27.394 5.635-37.185 15.426l-77.068 77.069c-7.202 7.18-16.623 10.77-26.067 10.77-9.443 0-18.885-3.59-26.066-10.77l-76.785-76.785c-9.792-9.814-23.346-15.427-37.207-15.427h-31.81L22.78 200.97c-30.374 30.375-30.374 79.614 0 109.988l58.095 58.074 31.81.021c13.86 0 27.416-5.635 37.208-15.426l76.784-76.764c13.925-13.947 38.208-13.924 52.133-.02l77.068 77.066c9.791 9.792 23.346 15.405 37.185 15.405h37.706l58.379-58.356c30.374-30.374 30.374-79.613 0-109.988zm-362.19 129.724c-3.763 3.786-8.942 5.917-14.273 5.917H94.302l-48.59-48.564c-17.689-17.69-17.689-46.476 0-64.143L94.3 175.296h18.385c5.331 0 10.51 2.154 14.295 5.918l74.74 74.74-74.761 74.74zm339.257-42.647l-48.848 48.87h-24.305c-5.309 0-10.508-2.155-14.251-5.92l-75.023-75.043 75.023-75.023c3.743-3.764 8.942-5.918 14.252-5.918h24.304l48.847 48.891c8.573 8.551 13.273 19.93 13.273 32.05 0 12.141-4.7 23.52-13.273 32.093z"/> </g> </symbol>
	<symbol id="Logo" xmlns="http://www.w3.org/2000/svg" viewBox="0 0 450 101" fill="none"><g fill="none" fill-rule="evenodd"><path d="M18.1325 100H3V2h15.1325c5.845 0 13.1857 2.9423 13.1857 15.4483v21.4908c0 5.297-1.7995 8.976-5.845 11.1817 4.0455 2.3547 5.845 6.0294 5.845 11.1773v23.258C31.3182 97.0577 23.9774 100 18.1325 100zm2.9961-82.8455c0-3.3808-1.3484-4.7007-3.2953-4.7007h-4.3446V45.556h3.8936c2.2505 0 3.7463-1.7627 3.7463-5.148V17.1546zm0 42.9685c0-3.2318-1.4958-5.148-3.7463-5.148h-3.8936v34.7247h4.3446c1.9469 0 3.2953-1.4734 3.2953-4.8498v-24.727zM37.3864 2v98H61.659V89.8444H47.7935V54.6768h9.7917V44.5256h-9.7917V12.1512H61.659V2H37.3864" fill="#0A0B09"/><g transform="translate(65.7045 1)"><mask id="a" fill="#fff"><path d="M.801.6819h63.4481v99.0546H.801z"/></mask><path d="M10.8046.6819L.801 98.823h9.256l1.6465-18.865h8.366l1.0413 18.865h10.7467L22.0053.682H10.8047zm5.6737 24.3146l2.8347 44.3522h-6.7195l3.8848-44.3522zM49.9112 100c-8.0634 0-14.3334-6.7802-14.3334-16.8011V.6819h10.3017v83.3996c0 3.3945 1.4952 5.1598 4.183 5.1598 2.8347 0 4.3299-1.7653 4.3299-5.1598V.682h9.8567v82.517c0 10.021-6.2745 16.8011-14.3379 16.8011" fill="#0A0B09" mask="url(#a)"/></g><path fill="#0A0B09" d="M134.4773 2v10.5941h9.238V100h10.2862V12.5941h8.794V2h-28.3182"/><g transform="translate(165.8295)"><mask id="b" fill="#fff"><path d="M.5243.4655h132.3454v100.271H.5243z"/></mask><path fill="#0A0B09" mask="url(#b)" d="M23.0064 1.6819L16.759 45.0065 10.4986 1.6819H.5243l10.4269 59.6778v38.4634h10.2715V61.3597l11.616-59.6778h-9.8323M49.424 101c-8.0442 0-14.744-6.7802-14.744-16.8055V17.271C34.68 7.395 41.3798.4655 49.424.4655c8.3414 0 13.5549 6.9295 13.5549 16.8055v18.7201h-8.7896v-19.752c0-2.8017-1.4864-5.015-4.468-5.015-3.1281 0-4.6145 2.2133-4.6145 5.015v68.9873c0 2.8017 1.4864 5.0105 4.6144 5.0105 2.9817 0 4.468-2.2088 4.468-5.0105V65.3207h8.7897v18.8738c0 10.0253-5.2135 16.8055-13.555 16.8055M83.136 101c-8.0443 0-14.744-6.7802-14.744-16.8055V17.271c0-9.876 6.6997-16.8055 14.744-16.8055 8.0441 0 14.7439 6.9295 14.7439 16.8055v66.9235c0 10.0253-6.6998 16.8055-14.744 16.8055m4.3216-85.0552c0-2.6567-1.6417-4.7206-4.3216-4.7206-2.8308 0-4.3216 2.0639-4.3216 4.7206v69.5759c0 2.8016 1.4908 4.7162 4.3216 4.7162 2.68 0 4.3216-1.9146 4.3216-4.7162V15.9448M118.5694 101c-8.0442 0-14.3003-6.7802-14.3003-16.8055V1.6467h10.2804v83.4348c0 3.3901 1.4864 5.1554 4.1708 5.1554 2.8263 0 4.3171-1.7653 4.3171-5.1554V1.6467h9.8323v82.5478c0 10.0253-6.2561 16.8055-14.3003 16.8055"/></g><path fill="#0A0B09" d="M328.6536 2v63.713l-2.2369-14.2725L316.8598 2h-10.4507v98h9.1077V36.4317l2.5393 14.1234L329.552 100h8.2094V2h-9.1078M342.8182 2v10.5947h9.2396V100h10.283V12.5947h8.7956V2h-28.3182M376.1932 2v98h24.2727V89.8436h-13.8637V54.68h9.798V44.5235h-9.798V12.152h13.8637V2h-24.2727M429.1028 100c-3.4542 0-5.1053-5.8652-5.1053-12.0277V62.147c0-2.9326-1.5034-4.9824-3.9061-4.9824h-4.0583v42.5426h-10.5104V2h15.1682c5.857 0 13.2174 2.9282 13.2174 15.4017V41.317c0 5.131-1.9508 8.8022-5.857 11.1492 3.9062 2.3513 6.1568 5.8696 6.1568 11.1536V87.238c0 4.4011.452 7.4823 1.6555 9.9779V100h-6.7608zm-5.5572-82.8911c0-3.374-1.2036-4.6983-3.1544-4.6983h-4.3581v34.7718h3.9061c2.2551 0 3.6064-1.6128 3.6064-5.131V17.1089zM448 6.9709C448 9.7877 445.8097 12 442.9587 12c-2.82 0-5.0723-2.2123-5.0723-5.0291 0-2.7586 2.2524-4.9709 5.0723-4.9709C445.8097 2 448 4.2123 448 6.9709zm-8.85 0c0 2.2123 1.6184 3.9722 3.8397 3.9722 2.1593 0 3.751-1.76 3.751-3.9409 0-2.2122-1.5917-4.0035-3.782-4.0035S439.15 4.79 439.15 6.9709zm3.0283 2.6064h-1.1439v-4.971c.4478-.0895 1.0863-.1522 1.8933-.1522.931 0 1.3523.1523 1.7114.3672.266.2105.4789.6046.4789 1.0882 0 .5464-.4168.9718-1.0198 1.151v.0627c.4833.179.7493.5463.8956 1.2136.1552.7568.2439 1.0568.3636 1.2405h-1.2282c-.1507-.1837-.2438-.636-.3901-1.2137-.0887-.5418-.3902-.7881-1.0198-.7881h-.541v2.0018zm.031-2.8169h.541c.6296 0 1.135-.215 1.135-.73 0-.4523-.328-.7568-1.0463-.7568-.3015 0-.5143.0314-.6296.0627v1.4241z"/></g></symbol>
	<symbol id="Facebook" xmlns="http://www.w3.org/2000/svg" viewBox="0 0 24 24" stroke="currentColor" fill="none" stroke-linecap="round" stroke-linejoin="round"><path stroke="none" d="M0 0h24v24H0z" fill="none" /><path d="M7 10v4h3v7h4v-7h3l1 -4h-4v-2a1 1 0 0 1 1 -1h3v-4h-3a5 5 0 0 0 -5 5v2h-3" /></symbol>
	<symbol id="Instagram" xmlns="http://www.w3.org/2000/svg" viewBox="0 0 24 24" stroke="currentColor" fill="none" stroke-linecap="round" stroke-linejoin="round"><path stroke="none" d="M0 0h24v24H0z" fill="none" /><rect x="4" y="4" width="16" height="16" rx="4" /><circle cx="12" cy="12" r="3" /><line x1="16.5" y1="7.5" x2="16.5" y2="7.501" /></symbol>
	<symbol id="Tiktok" xmlns="http://www.w3.org/2000/svg" viewBox="0 0 24 24" stroke="currentColor" fill="none" stroke-linecap="round" stroke-linejoin="round"><path stroke="none" d="M0 0h24v24H0z" fill="none" /><path d="M9 12a4 4 0 1 0 4 4v-12a5 5 0 0 0 5 5" /></symbol>
	<symbol id="Truck" xmlns="http://www.w3.org/2000/svg"  viewBox="0 0 36 28" stroke="currentColor" fill="none"><path d="M14 22.333C14 24.174 12.5077 25.6663 10.6667 25.6663C8.82576 25.6663 7.33337 24.174 7.33337 22.333M14 22.333C14 20.4921 12.5077 18.9997 10.6667 18.9997C8.82576 18.9997 7.33337 20.4921 7.33337 22.333M14 22.333H24M7.33337 22.333H4.00004V15.6663M30.6667 22.333C30.6667 24.174 29.1743 25.6663 27.3334 25.6663C25.4924 25.6663 24 24.174 24 22.333M30.6667 22.333C30.6667 20.4921 29.1743 18.9997 27.3334 18.9997C25.4924 18.9997 24 20.4921 24 22.333M30.6667 22.333H34V12.333M2.33337 2.33301H20.6667V22.333M34 12.333H20.6667M34 12.333L29 3.99967H20.6667M4.00004 8.99967H10.6667" stroke-linecap="round" stroke-linejoin="round"/></symbol>
	<symbol id="Discount" xmlns="http://www.w3.org/2000/svg" viewBox="0 0 34 34" stroke="currentColor" fill="none"><path d="M12 21.9998L22 11.9998M13.6667 12.8332C13.6667 13.2934 13.2936 13.6665 12.8333 13.6665C12.3731 13.6665 12 13.2934 12 12.8332C12 12.3729 12.3731 11.9998 12.8333 11.9998C13.2936 11.9998 13.6667 12.3729 13.6667 12.8332ZM22 21.1665C22 21.6267 21.6269 21.9998 21.1667 21.9998C20.7064 21.9998 20.3333 21.6267 20.3333 21.1665C20.3333 20.7063 20.7064 20.3332 21.1667 20.3332C21.6269 20.3332 22 20.7063 22 21.1665ZM5.33334 8.99979C5.33334 8.02733 5.71965 7.0947 6.40728 6.40707C7.09491 5.71943 8.02755 5.33313 9.00001 5.33313H10.6667C11.6348 5.33257 12.5635 4.94913 13.25 4.26646L14.4167 3.09979C14.7574 2.75713 15.1625 2.4852 15.6087 2.29964C16.0549 2.11408 16.5334 2.01855 17.0167 2.01855C17.4999 2.01855 17.9784 2.11408 18.4246 2.29964C18.8708 2.4852 19.2759 2.75713 19.6167 3.09979L20.7833 4.26646C21.4699 4.94913 22.3985 5.33257 23.3667 5.33313H25.0333C26.0058 5.33313 26.9384 5.71943 27.6261 6.40707C28.3137 7.0947 28.7 8.02733 28.7 8.99979V10.6665C28.7006 11.6346 29.084 12.5633 29.7667 13.2498L30.9333 14.4165C31.276 14.7572 31.5479 15.1623 31.7335 15.6085C31.9191 16.0547 32.0146 16.5332 32.0146 17.0165C32.0146 17.4997 31.9191 17.9782 31.7335 18.4244C31.5479 18.8706 31.276 19.2757 30.9333 19.6165L29.7667 20.7831C29.084 21.4696 28.7006 22.3983 28.7 23.3665V25.0331C28.7 26.0056 28.3137 26.9382 27.6261 27.6259C26.9384 28.3135 26.0058 28.6998 25.0333 28.6998H23.3667C22.3985 28.7003 21.4699 29.0838 20.7833 29.7665L19.6167 30.9331C19.2759 31.2758 18.8708 31.5477 18.4246 31.7333C17.9784 31.9188 17.4999 32.0144 17.0167 32.0144C16.5334 32.0144 16.0549 31.9188 15.6087 31.7333C15.1625 31.5477 14.7574 31.2758 14.4167 30.9331L13.25 29.7665C12.5635 29.0838 11.6348 28.7003 10.6667 28.6998H9.00001C8.02755 28.6998 7.09491 28.3135 6.40728 27.6259C5.71965 26.9382 5.33334 26.0056 5.33334 25.0331V23.3665C5.33279 22.3983 4.94934 21.4696 4.26667 20.7831L3.10001 19.6165C2.75734 19.2757 2.48541 18.8706 2.29985 18.4244C2.11429 17.9782 2.01877 17.4997 2.01877 17.0165C2.01877 16.5332 2.11429 16.0547 2.29985 15.6085C2.48541 15.1623 2.75734 14.7572 3.10001 14.4165L4.26667 13.2498C4.94934 12.5633 5.33279 11.6346 5.33334 10.6665V8.99979Z" stroke-linecap="round" stroke-linejoin="round"/></symbol>
	<symbol id="Return" xmlns="http://www.w3.org/2000/svg" viewBox="0 0 34 30" stroke="currentColor" fill="none"><path d="M32 6.66699H2M32 6.66699L27 11.667M32 6.66699L27 1.66699M7 28.3337L2 23.3337M2 23.3337L7 18.3337M2 23.3337H32" stroke-linecap="round" stroke-linejoin="round"/></symbol>			
	<symbol id="CreditCard" xmlns="http://www.w3.org/2000/svg" viewBox="0 0 34 28" stroke="currentColor" fill="none"><path d="M2 10.6663H32M8.66667 18.9997H8.68333M15.3333 18.9997H18.6667M7 2.33301H27C29.7614 2.33301 32 4.57158 32 7.33301V20.6663C32 23.4278 29.7614 25.6663 27 25.6663H7C4.23858 25.6663 2 23.4278 2 20.6663V7.33301C2 4.57158 4.23858 2.33301 7 2.33301Z" stroke-linecap="round" stroke-linejoin="round"/></symbol>		
	<symbol id="Deco" xmlns="http://www.w3.org/2000/svg" viewBox="0 0 58 20" stroke="currentColor" fill="none"><path d="M49.5359 16.9432C47.3666 16.9432 46.9948 14.8019 47.6797 12.7178C48.2221 11.0615 49.5066 9.31991 51.4201 9.31991C53.676 9.31991 53.9039 11.6038 53.247 13.6026C52.6753 15.3162 51.3908 16.9432 49.5359 16.9432ZM48.879 19.9973C52.6473 19.9973 56.0159 17.9133 57.3578 14.1449C58.7569 10.1767 57.1859 6.2085 52.0477 6.2085C47.9369 6.2085 44.7962 8.77758 43.5969 12.1755C42.2551 16.0011 43.7115 19.9973 48.879 19.9973ZM36.3747 19.9973C37.8591 19.9973 39.3729 19.6829 40.4282 19.2271C40.8 18.1998 40.828 17.2004 40.5428 16.201C39.8006 16.4862 38.7732 16.7727 37.7165 16.7727C34.861 16.7727 34.6051 14.6606 35.2048 12.8617C35.8617 10.9496 37.574 9.40786 40.287 9.40786C41.0012 9.40786 41.6861 9.52246 42.1138 9.77963C42.856 8.78025 43.2838 7.78086 43.3704 6.7535C42.7428 6.46834 41.6861 6.21117 40.3163 6.21117C35.863 6.21117 32.3505 8.80956 31.0953 12.406C29.896 15.8039 30.8101 20 36.3774 20L36.3747 19.9973ZM21.0442 11.8037C21.8143 10.0901 23.0136 9.09206 24.5846 9.09206C25.9838 9.09206 26.2116 9.86225 25.9838 10.4619C25.6413 11.2894 24.47 11.8037 21.0442 11.8037ZM22.2714 19.9973C23.7278 19.9973 25.7826 19.7122 27.4962 18.8554C27.7813 17.9133 27.7534 16.9712 27.4389 15.9998C26.3542 16.5421 24.8405 16.8566 23.4707 16.8566C21.4439 16.8566 20.3299 16.1997 20.3592 14.5447C25.8972 14.6873 28.7807 13.6879 29.7228 11.2334C30.6649 8.7496 29.0379 6.2085 25.1829 6.2085C21.0721 6.2085 18.046 9.14935 16.932 12.3181C15.7621 15.6867 16.5043 19.9973 22.2701 19.9973H22.2714ZM5.72293 19.9973C9.52059 19.9973 11.6806 18.2557 14.1924 12.9177C15.5622 9.97684 16.7335 7.09329 18.0753 4.23905L19.6743 4.7534C20.1021 4.89598 20.3313 4.6388 20.1314 4.23905L18.1899 0.270827C18.0473 -0.0143302 17.7329 -0.0436454 17.533 0.0429678L12.708 1.86984C12.3082 2.01242 12.3362 2.38419 12.7359 2.49745L14.1631 2.95451C12.9931 5.6102 11.5367 9.60641 10.3654 12.1182C9.05155 14.9165 8.39595 16.8859 6.16933 16.8859C3.9427 16.8859 3.57093 15.1443 4.51301 12.6605C5.59768 9.77697 7.42455 8.92016 9.5086 9.51979C10.0802 8.72028 10.508 7.52103 10.6785 6.43636C10.0789 6.26447 9.36469 6.2085 8.76639 6.2085C5.3978 6.2085 2.05719 7.95009 0.687373 11.6038C-1.0822 16.3143 0.554122 19.9973 5.7216 19.9973H5.72293Z" fill="#F4F6F5"/></symbol>
	<symbol id="Discord" xmlns="http://www.w3.org/2000/svg" viewBox="0 0 127.14 96.36" stroke="currentColor" fill="none"><g id="图层_2" data-name="图层 2"><g id="Discord_Logos" data-name="Discord Logos"><g id="Discord_Logo_-_Large_-_White" data-name="Discord Logo - Large - White"><path class="cls-1" d="M107.7,8.07A105.15,105.15,0,0,0,81.47,0a72.06,72.06,0,0,0-3.36,6.83A97.68,97.68,0,0,0,49,6.83,72.37,72.37,0,0,0,45.64,0,105.89,105.89,0,0,0,19.39,8.09C2.79,32.65-1.71,56.6.54,80.21h0A105.73,105.73,0,0,0,32.71,96.36,77.7,77.7,0,0,0,39.6,85.25a68.42,68.42,0,0,1-10.85-5.18c.91-.66,1.8-1.34,2.66-2a75.57,75.57,0,0,0,64.32,0c.87.71,1.76,1.39,2.66,2a68.68,68.68,0,0,1-10.87,5.19,77,77,0,0,0,6.89,11.1A105.25,105.25,0,0,0,126.6,80.22h0C129.24,52.84,122.09,29.11,107.7,8.07ZM42.45,65.69C36.18,65.69,31,60,31,53s5-12.74,11.43-12.74S54,46,53.89,53,48.84,65.69,42.45,65.69Zm42.24,0C78.41,65.69,73.25,60,73.25,53s5-12.74,11.44-12.74S96.23,46,96.12,53,91.08,65.69,84.69,65.69Z"/></g></g></g></symbol>
	<symbol id="FilterList" xmlns="http://www.w3.org/2000/svg" viewBox="0 0 16 16" fill="none"><path d="M6.66667 12H9.33333V10.6667H6.66667V12ZM2 4V5.33333H14V4H2ZM4 8.66667H12V7.33333H4V8.66667Z" fill="#161616"/></symbol>
	<symbol id="ChevronUp" xmlns="http://www.w3.org/2000/svg" viewBox="0 0 16 16" stroke="currentColor" fill="none"><path fill-rule="evenodd" clip-rule="evenodd" d="M7.52851 5.52827C7.78886 5.26792 8.21097 5.26792 8.47132 5.52827L12.4713 9.52827C12.7317 9.78862 12.7317 10.2107 12.4713 10.4711C12.211 10.7314 11.7889 10.7314 11.5285 10.4711L7.99992 6.94248L4.47132 10.4711C4.21097 10.7314 3.78886 10.7314 3.52851 10.4711C3.26816 10.2107 3.26816 9.78862 3.52851 9.52827L7.52851 5.52827Z" fill="black"/></symbol>
	<symbol id="ProvenResults" xmlns="http://www.w3.org/2000/svg" viewBox="0 0 64 64" stroke="black" fill="none"><g><g><path d="m55.98,45.16c.01-.09-.07-.08-.18.13v.2s.18-.34.18-.34Z"/><path d="m54.94,46.43c-.1.27-.19.61,0,.51.05-.3.13-.34.17-.67.11-.21.25-.34.27-.28.02-.09.22-.31.22-.46-.24.22-.45.56-.6.95-.07.06-.05-.03-.06-.06Z"/><path d="m35.8,58.57h.15s-.09,0-.15,0Z"/><path d="m21.68,56.62c.1.04.15.05.16.04-.1-.03-.18-.06-.16-.04Z"/><path d="m19.52,55.44s.08.05.12.08c-.04-.04-.09-.07-.12-.08Z"/><path d="m35.8,58.57l-.39.02s.2,0,.39-.02Z"/><path d="m53.3,49.25c.04-.07.08-.13.1-.19l-.11.17v.02Z"/><path d="m41.91,56.88l.11-.05s.05-.05.07-.08l-.18.13Z"/><path d="m46.25,54.67c-.09.06-.07.16-.09.22.03-.07.09-.13.17-.19,0-.02-.03-.03-.08-.03Z"/><path d="m52.25,49.82l.08-.11s-.06.08-.08.11Z"/><path d="m38.59,57.91s-.03-.02-.05-.02c0,.01.02.02.05.02Z"/><path d="m59.29,36s-.01,0-.02,0c0,.03.01.04.02,0Z"/><path d="m57.39,41.44l.02-.08s-.03-.03-.05-.04l.03.11Z"/><path d="m15.84,52.92s0,0,.01.01c.1.07.04.03-.01-.01Z"/><path d="m10.8,16.21c-.34.33.34-.69-.14-.17.07-.03-.24.62.14.17Z"/><path d="m53.2,49.34l-.13.15c.06-.07.11-.11.13-.15Z"/><path d="m10.66,16.03h0s-.05.05-.05.05c.02-.02.03-.03.05-.05Z"/><path d="m9.09,45.23s0,.07.01.12c0,0,0-.04-.01-.12Z"/><path d="m13.71,51.36l-.12-.15c.05.06.09.11.12.15Z"/><path d="m7.27,41.67c-.03-.1-.03-.14-.1-.26v.04s.07.1.1.22Z"/><path d="m6.06,37.69v.08s.02.09.02.13l-.02-.21Z"/><path d="m58.05,23.15c0,.1-.01.16-.03.22.05-.09.25.51.03-.22Z"/><path d="m53.25,49.22s-.01.07-.05.12c.03-.04.06-.07.09-.11,0-.02-.01-.03-.04-.01Z"/><path d="m6.46,41.8l-.24-.64c.07.18.15.41.24.64Z"/><path d="m35.4,4.85h.16c-.06,0-.12,0-.16,0Z"/><path d="m5.62,39.23c0-.13-.02-.26-.04-.39-.02-.03-.03-.05-.05-.07l.09.46Z"/><path d="m58.02,23.37h0s0,0,0,0Z"/><path d="m59.32,27.67c-.12-.64-.18-.28-.29-.4-.18-.75.03-.37.04-.64-.13-.47-.3-.81-.39-1.16.01-.03,0-.1.05-.03-.24-.46-.43-1.45-.72-1.98,0-.05,0-.07,0-.08-.04.11-.1.15-.15.14-.08-.28-.24-.48-.2-.61.06.16.1.17.16.23l-.15-.27c.01-.29.2.37.27.34-.24-.54-.6-1.14-.73-1.57.08-.13.43.97.31.37l.22.67c-.02-.56.15.4.16-.13-.31-.88-.44-.94-.76-1.81-.14-.17-.06.1-.2-.06-.71-1.11-.2-1.05-.79-1.84-.2-.18-.33-.21-.64-.82l.24.13c-.47-.76-.44-.33-.87-1.16.14.11.42.57.36.44-.24-.57-.3-.32-.55-.71l.05-.15c-.52-.8-1.3-1.53-1.95-2.35.06.02.2.14.08-.08-.96-.93-1.91-2.11-2.88-2.96l-.44-.24c-.09-.08-.13-.17-.02-.11-.36-.36-.06.03-.27-.09-.22-.18-.25-.29-.09-.2-.35-.27-.93-.55-1.45-.91-.54-.33-1.04-.74-1.43-.99l.17.06c-.61-.39-.82-.21-1.36-.62l.12.05c-.34-.2-.69-.4-1.04-.59-.37-.16-.74-.32-1.1-.47-.72-.3-1.37-.65-1.93-.87-.26.07-1.47-.53-1.62-.36-.82-.38-.58-.31-1.8-.65-.33-.08-.52.03-.93-.04v-.11c-.18,0-.37,0-.57,0l-.28-.16h-.39c.15,0,.32.07.3.1-.61-.01-1.47-.23-1.49-.29l-.73-.03-.73.04s.28-.06.47-.08c-.78.11-.14-.12-.85-.02.09.03-.05.07-.07.09-.35-.06-1.16-.1-1.75-.03l.11-.09c-.54.04-1.1.1-1.69.17-.29.03-.58.07-.88.1-.29.06-.59.12-.89.18.43-.05.35.1.01.18l-.16-.09c-.21.11.37-.03-.07.15-.44.07-.32-.07-.07-.16l-.53.14s.08-.07.11-.12c-.2.12-.97.04-1.24.28l-.04-.02c-1.16.36-1.69.5-2.61.85.02.1-.35.22-.59.41-.68.24-1.47.43-2.23.87-.52.32-.12.16-.34.34-.08-.06-.85.35-.48.08-.93.47-1.15.68-2.22,1.45.14-.05.28-.12.23-.05-.19.14-.48.26-.47.21l.05-.04c-1.13.94-2.91,1.85-3.6,2.85l.04-.05-.81.92c-.41.39.19-.29-.15-.03-.74,1.11-1.41,1.54-1.97,2.49-.35.26-.78.88-1.21,1.54-.42.66-.76,1.42-1.12,1.87l.09-.03c-.09.29-.21.29-.32.48.06,0,.21-.25.15-.08-1.03,2.25-2.17,4.67-2.67,7.2-.19.92.17.57-.12,1.71l-.08-.35c-.02.95-.16,1.9-.2,2.86.01.96-.07,1.92.08,2.83-.04-.11-.07-.11-.09-.29-.05.39.13,1.44.2,1.44.02.29-.06.07-.08.25-.02.4.2.96.17,1.18,0,.04-.05-.1-.07-.17.09.24.21,1.17.26.91.1.69.26,1.3.38,1.84.21.32.28,1.15.46,1.22-.17,0,.21,1.21.48,1.58-.1-.12.09.37-.03.24.19.46.39.88.43.76.13.95.93,1.6.93,2.18.19.32.37.63.55.94.21.29.41.58.61.86.42.56.75,1.15,1.2,1.64-.19.08-.85-1.2-.95-1.06.71,1.06,1.35,1.48,2.07,2.5.18.27-.17-.1-.26-.17.4.49.84.91,1.25,1.35.42.42.79.86,1.25,1.2-.01,0-.12-.06-.21-.12.17.14.38.35.41.28l-.18-.13c-.19-.31.81.4.88.39-.42-.08.8.76.18.57.12.08.28.18.29.12.15.15.19.22-.01.12.63.49.46.24,1.04.66-.02.03-.15-.04-.24-.05.34.15.68.3,1.16.67-.04,0,0,.06-.15-.04.84.62,1.59.8,2.54,1.41-.37-.03.31.23.31.38.19.08.36.19.56.25-.07-.05-.13-.1-.19-.16.48.23.97.32,1.37.55l-.39-.11.93.37-.5-.27c.52.15.01-.18.65.14-.14-.05.49.22.72.39h0c.27.04.54.08.9.23.08.07-.12.11-.07.16.28-.03,1.2.36,1.55.34-.11,0-.14.06-.11.09l.24-.04c.23.08.27.1.21.15.72.18-.19-.22.66.05-.07,0-.04.01-.18,0,.86.23,1.68.33,2.49.45.22.16-.71-.06-.46.09.59.06,1.2.1,1.8.14.61.01,1.21,0,1.78.03l-.21-.02c.16-.2.85.16,1.42.02-.14.02-.18.11-.15.09.78-.04,1.6-.07,2.76-.31l-.14.07c.46-.02,1.2-.15,1.7-.19.14-.06.42-.12.23-.15.77-.04,1.48-.24,2.16-.44.67-.24,1.3-.52,1.98-.62-.15.05-.35.16-.23.12.36-.13.73-.27,1.07-.44-.11-.04-.16.01-.4.05.12-.1.4-.27.66-.38-.46.25.05.12.28.08-.04,0,.02-.06-.01-.08.61-.1.03-.19.82-.42l-.02.06c.28-.13.5-.32.8-.47.16.02-.27.19-.25.27.41-.23.73-.59,1.15-.71-.17.11-.4.26-.58.37.46-.12.49-.17.8-.31h-.03c.24-.1.49-.2.72-.32-.06.03-.12.06-.19.08.37-.52.98-.69,1.55-1.25-.55.54-.06.14-.04.26.19-.09.46-.23.41-.15.27-.26.54-.32.89-.74.04.01.32-.24.3-.12.37-.32-.13.02-.12-.04.26-.28.63-.52,1.02-.8.37-.31.77-.65,1.11-1.07.64-.67.65-.9,1.18-1.57.23-.18-.06.26-.06.26.35-.31.58-.58.84-.94-.04.09.04.03.16-.04.22-.28.05-.27.37-.61-.02.09-.03.21-.1.37.21-.36.43-.72.65-1.09.12-.06-.08.26-.14.41.27-.41.71-1.04.71-1.22-.06.08-.14.15-.21.23.1-.14.12-.03.06.09-.19.38-.39.46-.43.46l.16-.26c-.35.13-.7,1.01-1.09,1.5l.04-.3c-.09.2-.2.38-.31.56-.12.08-.24.09-.06-.15-.35.28-.22.33-.53.55-.04.02-.03,0,0-.03l-.25.35c.03-.08-.12-.02.07-.2-.57.52-.75,1-1.05,1.11l.04-.05c-.74.77,0,.15-.5.79l-.58.17v.15c-.09.07-.25.22-.25.16-.26.33.09,0-.05.2-.48.25-1.13.94-1.33.88-.1.18.44-.26.03.13-.24-.06-.49.45-.95.63.07-.16.48-.37.03-.18-.15.29-.81.48-1.13.73.06.13-.71.54-1.31.87,0-.08-1.15.58-1.77.76v-.03c-.05.17-.67.4-1.1.62-.01-.08.06-.14.28-.28l-.41.18c-.08.08-.2.16-.47.28l.07-.14c-.56.21-1.1.49-1.85.67-.02.1.66.05-.1.37-.04-.04-.09-.11.1-.2-.06.03-.23.12-.37.14l.29-.18c-.34.07-.15.13-.43.2-.01-.07-.22,0-.19-.06.07-.03.25-.02.34-.09-.31.07-.69.11-.83.09.04.03.02.09-.2.15-.58.14-.22-.04-.57,0-.13.08-.51.12-.5.22-.17.04-.21,0-.28-.01-.3.09-1.43.22-1.06.28h.08s-.03,0-.05,0h0s0,0,0,0c-.5.11-1.02.21-1.55.21-.53,0-1.05,0-1.56.05v-.04c-.6.1-1.34.01-1.77.08-.18,0-.42-.08-.34-.12-.46,0-.52.08-1.17-.06.46,0-.15-.06.47,0-.59-.08-.72-.17-1.36-.15.23-.06-.43-.17-.71-.18l.4.12c-.32-.03-.59-.07-.87-.11l.17-.1c-.58-.18-1.12-.25-1.64-.31-.51-.06-.99-.12-1.39-.39-.33-.02.61.26.31.26-.53-.19-1.04-.53-1.2-.58-.7-.31-.75-.02-1.47-.39.08.08.13.22-.44.02-.51-.24-.57-.44-.23-.33.12.05.18.09.17.1.17.06.4.13.21,0h-.08c-.24-.14-.95-.44-.75-.43-.4-.13-.19,0,.08.14-.63-.34-1.04-.43-1.65-.85.09.08.16.17.06.12-.92-.57-.46-.16-1.11-.5-.33-.26.21-.06-.47-.37-.37-.26-.02-.14.15-.08-.63-.27-1.01-.75-1.32-.97l.31.17c-.18-.1-.33-.2-.47-.3l.12.18c-.16-.13-.31-.23-.28-.26-.21-.08.05.21-.34.03-.21-.19-.72-.45-.71-.61.66.58-.02-.13.59.29-.12-.07-.27-.16-.42-.31-.02-.03.04,0,.08.03-.57-.62-.37-.15-1.02-.71.12.02-.07-.22-.19-.3.26.23.06.19-.22.02-.38-.4-.49-.36-.69-.57.07.09.15.16.23.24-.14-.02-.32-.23-.61-.49.01-.06.27.23.19.11-.38-.23-.59-.78-1.06-1.16-.16-.23.07-.1-.08-.29-.53-.42-.4-.61-.9-1.11.06.21.1.23-.27-.11l.76.87-.56-.51c.22.28.5.55.62.72-.28-.23-.24-.22-.19-.04-.2-.46-.65-.7-.93-1.19l.18-.12c-.46-.69-.97-1.12-1.51-2.06l.16.31c-.15-.08-.37-.56-.59-.83.08,0-.02-.21-.06-.35-.04.04-.36-.7-.53-.72l-.14-.47c-.36-.79-.67-.78-.95-1.59.16.21.07-.17.33.33-.1-.26-.19-.5-.23-.48-.02-.17-.38-.69-.41-.95-.07-.1-.16-.11-.27-.4,0-.04.03-.01.03-.01-.03.01-.23-.44-.2-.16-.03-.9-.75-2.32-.69-3.11-.13-.6-.29-1.32-.41-1.87.03.03.04,0,.05.1-.05-.77-.26-.44-.28-1.32.07-.46.1.46.12.17.22-.14-.13-1.05-.05-1.64l.03.14c.05-.45-.09-1.09-.08-1.83,0,0,.02.04.03,0-.06-.25-.1-.62-.12-1.01.02-.39.04-.81.06-1.16.07.23.01.32.12.2.02-.32-.16.08-.12-.56.07-.2.16-.65.27-.7l-.06.59c.16-.29.07-.77.14-1.07l.05.05c.17-.89.03-.93.24-1.9l-.06.09c-.02-.56.15-.43.19-.97l.19-.12c.07-.35.24-1.22.41-1.84-.01.38-.18,1.1-.26,1.56.11-.33.35-1.14.34-1.33-.03.14-.05.32-.11.45.04-.44.1-1.02.41-1.66.21.22.78-1.66,1.19-2.02.53-1.11,1.17-2.15,2.02-3.3-.47.3.23-.35,0-.4.18-.28.26-.39.29-.4.22-.26.46-.5.73-.72.21-.14-.17.27-.11.28.49-.54.27-.17.63-.5-.12.03.08-.26.37-.56l-.46.38c.59-.84.68-.58,1.32-1.38l-.18.27c.35-.39,1.4-1.34,1.66-1.83.09-.04.22-.07.05.09,1-.76,2.07-1.92,2.99-2.32l-.05.1c.19-.14.29-.31.57-.42,0,.03-.05.1.04.04.1-.08.47-.44.77-.54-.07.06-.14.11-.2.18,1.13-.5,1.59-1.03,2.53-1.48.06.14.98-.17,1.44-.32v.03c.65-.28,1.23-.47,1.78-.67.56-.19,1.1-.46,1.75-.6.43,0,1.11-.11,1.86-.24.75-.12,1.57-.15,2.23-.18-.2,0,.02-.13.26-.16.31-.02.86-.13.81,0h-.11c.24.14.87.11,1.37.11l.09-.19c.65.11,1.5.19,2.28.24.39.03.76.05,1.08.09.31.06.57.14.73.24.32.02.7.1,1.01.12l-.04.1c.85.18,1.26.33,2.29.64h-.23c.57.19.82-.04,1.36.12l.11.19c.97.43,1.93.92,2.91,1.29-.03.01-.07.03-.22-.04.44.25,1.63,1.03,1.58.76-.03.06.21.2.52.35.3.17.66.37.91.51l-.13.03c.47.17.5.15,1.08.51.12.1.07.14-.09,0,.4.36.42.14.88.61l-.22-.11c.41.36.4.31.68.45.29.2.78.7.78.82.09.01.39.14.59.4,0,.06-.09-.01-.14-.05.59.71,1.03.91,1.4,1.44-.02.03,0,.07.03.12-.51-.53-.91-.96-.87-.92-.06.07.33.5-.08.25.36.3,1.07.75,1.39,1.24.01.03.02.05.02.08l-.04-.04c.08.11.16.2.24.28.1.15.17.25.27.39-.02.1.39.55.56.79.07-.08.29.23.13-.1.02.04-.04-.04-.17-.19-.03-.03-.06-.07-.09-.09h.02c-.12-.14-.28-.34-.46-.56.18.15.37.32.53.61.15.08.3.17.39.23.16.39.48,1.11.48,1.24.26.37.56.8.85,1.2.27.41.49.79.71,1,.14.22.09.29.1.39-.08-.12-.16-.28-.22-.34.27.44.73,1.33.87,1.4.19.63-.25-.29.1.53l-.08-.1c.21.85.6,1.46.88,2.14.27.68.58,1.39.68,2.36,0-.14-.01-.2,0-.24.32,2.18.94,4.49.64,6.69-.04.62.04.69.1,1.07l-.12.13.06.65c-.03.93-.36,1.56-.47,2.71l.1-.13c-.1.41-.23,1.31-.3,1.22,0,.04.05.15-.02.3h-.06c-.02.34-.1.68-.18,1.01-.28.75-.18-.18-.54.92-.11.41-.21,1.22-.13,1.08.06-.17.17-.41.22-.41l-.09.39c.13.12.2.48.61-.42l.11-.69.14-.19-.17.56c.17-.29.17-.51.2-.75.06-.04.12-.12.17-.25l.05-.69c.08-.06.04.33.2-.1,0-.33-.2.26-.14-.26.14-.3.18-.2.2-.59.05-.04.06.04.05.2.02-.35.17-.9.11-1.09.17-.32.21-1.14.34-1.09-.03-.11-.06-.62-.03-.94.13.6.14-1.18.32-1.01-.08-.44-.03-1.55-.1-2.31.01.04.04.13.03.19.02-.43.07-.55.1-.83-.12-.05-.21-.71-.33-1.06.09-.53.19.3.31.13-.11.03-.2-.9-.27-.71.05-.41,0-.35.1-.57-.18-.05-.06-.37-.2-.68-.02-.58.13-.17-.04-.79,0-.31.16.24.16.24Zm-6.56-13.44h0c.08.1.15.18.2.24-.04-.05-.1-.12-.2-.24Zm-.87-.92c.11.11.24.25.38.4,0,.06-.05.04-.14-.05.06.03-.13-.19-.24-.35Zm1.19,2.46c-.13-.14-.16-.21-.16-.24.06.07.13.15.22.26h.02s-.05,0-.09-.02Z"/><path d="m53.41,15.96s.03.03.06.06c-.02-.04-.04-.07-.05-.11l-.07-.04.07.08Z"/><path d="m35.98,58.56h-.03s.04,0,.06,0c-.02,0-.02,0-.03,0Z"/><polygon points="36.81 5 36.8 5.03 36.92 5.03 36.81 5"/><path d="m42.7,57.04s.04,0,.09-.01c0,0-.05,0-.09.01Z"/><path d="m45.4,55.74l.39-.17c-.17.07-.3.13-.39.17Z"/><path d="m47.4,54.57s.01-.05.01-.06h0s0,.06,0,.06Z"/><path d="m13.36,51.96l-.07-.06c-.16-.14-.06-.04.07.06Z"/><path d="m22.74,57.48c-.12-.01-.23-.05-.34-.09.17.09.32.14.34.09Z"/><polygon points="6.49 41.87 6.49 41.87 6.46 41.8 6.49 41.87"/><path d="m21.93,57.19c.17.1.32.16.47.2-.14-.07-.31-.15-.47-.2Z"/><path d="m54.54,47.6l.07-.09s0-.01,0-.02l-.06.11Z"/><path d="m54.6,47.49l.06-.11s-.06.09-.06.11Z"/><path d="m54.79,47.16c-.04.08-.08.16-.12.23.06-.07.12-.16.12-.23Z"/><path d="m52.6,49.98v.05s.01-.04,0-.05Z"/><path d="m51.99,50.68c.15-.16.43-.36.62-.61v-.04c-.06.15-.52.45-.62.65Z"/><path d="m48.85,52.95l.62-.45c-.13.05-.3.12-.03-.1-.83.51.21-.06-.59.55Z"/><path d="m46.9,54.31c.33-.24-.04-.04-.03-.07-.2.17-.25.21.03.07Z"/><path d="m30.62,58.72l.05-.09c-.32,0,0,.04-.05.09Z"/><path d="m27.28,58.81c.1.04.2.09.3.11l.16-.06c-.16,0-.31-.02-.46-.05Z"/><path d="m25.52,57.76l.14.02c-.17-.03-.35-.05-.52-.09.12.03.26.05.38.07Z"/><path d="m6.3,38.39l-.08.12c.08.2.21.21.08-.12Z"/><path d="m6.09,26.11c.08-.12.19-.45.18-.68-.06.27-.16.53-.18.68Z"/><path d="m33.4,5.52l-.25.04c.16,0,.31-.02.47-.02-.07-.01-.15,0-.22-.01Z"/></g><g><polyline stroke-width=".89px" stroke-linejoin="round" stroke-linecap="round" fill="none" stroke="#000" points="30.8 38.34 27.07 31.95 27.07 27.52 27.86 27.52"/><path stroke-width=".89px" stroke-linejoin="round" stroke-linecap="round" fill="none" stroke="#000" d="m23.32,27.52h.93v4.43l-4.26,7.36c-.54.95-.12,1.64.97,1.64h9.48c.24,0,.45-.04.62-.1"/><path stroke-width=".21px" stroke-miterlimit="10" fill="none" stroke="#000" d="m39.93,34.98c-4.09,1.44-6.12,5.41-6.93,9.76,3.15-2.18,7.3-2.85,9.51-5.48,2.28-2.72,1.88-6.48,2-10.29-2.65,1.25-5.28,1.94-7.98,2.55-5.15,1.17-7.99,7.37-3.54,13.21.63-5.59,4.06-8.61,6.93-9.76h0Z"/><path stroke-width=".89px" stroke-linejoin="round" stroke-linecap="round" fill="none" stroke="#000" d="m39.93,34.98c-4.09,1.44-6.12,5.41-6.93,9.76,3.15-2.18,7.3-2.85,9.51-5.48,2.28-2.72,1.88-6.48,2-10.29-2.65,1.25-5.28,1.94-7.98,2.55-5.15,1.17-7.99,7.37-3.54,13.21.63-5.59,4.06-8.61,6.93-9.76h0Z"/><path stroke-width=".21px" stroke-miterlimit="10" fill="none" stroke="#000" d="m29.92,22.85c0,1.15-.88,2.09-1.96,2.09s-1.96-.94-1.96-2.09c0-2.19,1.96-4.21,1.96-4.21,0,0,1.96,1.96,1.96,4.21"/><path stroke-width=".89px" stroke-linejoin="round" stroke-linecap="round" fill="none" stroke="#000" d="m29.92,22.85c0,1.15-.88,2.09-1.96,2.09s-1.96-.94-1.96-2.09c0-2.19,1.96-4.21,1.96-4.21,0,0,1.96,1.96,1.96,4.21Z"/><path stroke-width=".21px" stroke-miterlimit="10" fill="none" stroke="#000" d="m39.8,22.85c0,1.15-.88,2.09-1.96,2.09s-1.96-.94-1.96-2.09c0-2.19,1.96-4.21,1.96-4.21,0,0,1.96,1.96,1.96,4.21"/><path stroke-width=".89px" stroke-linejoin="round" stroke-linecap="round" fill="none" stroke="#000" d="m39.8,22.85c0,1.15-.88,2.09-1.96,2.09s-1.96-.94-1.96-2.09c0-2.19,1.96-4.21,1.96-4.21,0,0,1.96,1.96,1.96,4.21Z"/><path stroke-width=".21px" stroke-miterlimit="10" fill="none" stroke="#000" d="m34.96,26.83c0,1.15-.88,2.09-1.96,2.09s-1.96-.94-1.96-2.09c0-2.19,1.96-4.21,1.96-4.21,0,0,1.96,1.96,1.96,4.21"/><path stroke-width=".89px" stroke-linejoin="round" stroke-linecap="round" fill="none" stroke="#000" d="m34.96,26.83c0,1.15-.88,2.09-1.96,2.09s-1.96-.94-1.96-2.09c0-2.19,1.96-4.21,1.96-4.21,0,0,1.96,1.96,1.96,4.21Z"/></g></g></symbol>
	<symbol id="IngredientsSafety" xmlns="http://www.w3.org/2000/svg" viewBox="0 0 64 64" stroke="black" fill="none"><g><g><path d="m35.42,4.63c-.09.02-.05.09.19.12l.18-.09-.37-.03Z"/><path d="m36.98,5.1c.29-.01.63-.06.47-.2-.3.07-.36.01-.68.1-.24-.02-.41-.1-.36-.14-.09.02-.37-.08-.5-.03.3.14.68.2,1.1.19.08.04,0,.06-.03.08Z"/><path d="m55.47,18.07l-.07-.13s.04.08.07.13Z"/><path d="m59.15,31.78c0-.11-.02-.15-.03-.16.01.1.02.18.03.16Z"/><path d="m58.91,34.21c0-.05.01-.1.02-.14-.01.05-.02.11-.02.14Z"/><path d="m55.47,18.07c.06.12.12.23.17.35.05,0-.07-.19-.17-.35Z"/><path d="m40.2,5.55c-.08-.02-.15-.04-.21-.03.07,0,.13.03.19.05,0,0,0,0,.02-.01Z"/><path d="m51.55,13.11l-.08-.09s-.07-.03-.1-.04l.18.12Z"/><path d="m47.87,9.97c.09.06.18,0,.24,0-.07,0-.15-.03-.24-.08-.01.01-.01.04,0,.09Z"/><path d="m41.12,6.3l-.13-.03s.09.02.13.03Z"/><path d="m53.77,15.77s0,.04,0,.06c.01,0,0-.03,0-.06Z"/><path d="m24.2,5.44s0,.01,0,.02c.02-.02.03-.03,0-.02Z"/><path d="m29.9,4.83l-.08.02s-.01.04-.01.06l.09-.07Z"/><path d="m58,38.57s0-.01,0-.02c.02-.12,0-.05,0,.02Z"/><path d="m26.49,57.84c.43.21-.76-.08-.1.2-.06-.05.65,0,.1-.2Z"/><path d="m40.32,5.61l.19.06c-.09-.03-.15-.05-.19-.06Z"/><path d="m26.39,58.04h0s.07.03.07.03c-.03-.01-.04-.02-.07-.03Z"/><path d="m53.63,47.75s.06-.03.1-.06c-.01,0-.03,0-.1.06Z"/><path d="m57.41,41.12l-.08.17c.04-.07.06-.12.08-.17Z"/><path d="m51.15,50.86c-.08.07-.12.08-.21.18l.04-.02s.08-.09.17-.16Z"/><path d="m47.97,53.52l.07-.03s.07-.06.1-.08l-.18.11Z"/><path d="m13.17,12.02c.09-.04.15-.06.21-.07-.1,0,.35-.44-.21.07Z"/><path d="m40.19,5.61s.07-.02.13,0l-.14-.04s-.02.02,0,.04Z"/><path d="m51.58,51.54l-.52.44c.15-.12.34-.28.52-.44Z"/><path d="m6.1,40.15l-.06-.14c.02.06.04.11.06.14Z"/><path d="m49.57,53.33c-.12.04-.24.1-.35.17-.02.02-.04.05-.05.07l.4-.24Z"/><path d="m13.38,11.95h0s0,0,0,0Z"/><path d="m16.69,8.96c-.52.38-.17.29-.24.43-.6.49-.34.13-.6.23-.37.31-.59.63-.88.84-.03,0-.09.04-.05-.03-.31.42-1.12,1.01-1.47,1.5-.04.02-.06.03-.08.03.12-.02.17.02.19.07-.21.2-.34.41-.47.43.12-.13.12-.15.15-.23-.07.07-.13.15-.19.24-.28.1.26-.32.2-.38-.41.42-.77,1.02-1.11,1.32-.15-.01.68-.8.2-.43l.51-.48c-.5.26.3-.3-.18-.09-.65.66-.66.8-1.31,1.46-.09.2.12.02.03.21-.72,1.09-.87.62-1.33,1.48-.08.25-.03.4-.48.92,0-.09,0-.19.01-.27-.49.75-.1.54-.67,1.28.04-.17.33-.62.24-.51-.41.46-.16.41-.4.8l-.16.02c-.52.8-.84,1.81-1.3,2.75,0-.07.04-.24-.11-.04-.28.6-.48,1.28-.76,1.93-.14.32-.27.65-.4.96-.11.33-.21.64-.31.95l-.03.5c-.03.11-.1.19-.09.07-.17.47.06.04.04.28-.07.28-.16.35-.14.17-.09.43-.15,1.06-.22,1.69-.08.63-.19,1.25-.31,1.7,0-.06,0-.12,0-.18-.11.72.16.83.01,1.49v-.13c-.22,1.56.02,3.28-.08,4.48.18.21.15,1.54.37,1.61.03.9-.1.66.14,1.9.07.33.25.46.37.85l-.1.04.25.52-.06.33c.04.12.1.24.15.36-.05-.15-.06-.33-.02-.31.25.56.42,1.42.37,1.46.2.44.36.89.59,1.32-.05-.01-.18-.22-.26-.4.39.67-.06.18.33.78-.02-.1.08.02.11.03.09.35.43,1.07.71,1.6l-.12-.07c.2.5.55.96.84,1.46.32.48.59,1.02.97,1.5-.23-.37-.06-.36.16-.09v.18c.18.14-.19-.32.15,0,.25.37.07.32-.11.13l.36.42s-.1-.05-.16-.05c.19.14.47.83.76,1.02v.05c.76.93,1.18,1.29,1.83,2.02.08-.05.34.23.61.37.51.5,1.02,1.13,1.7,1.67.52.33.2.04.45.16-.02.1.67.61.27.4.84.61,1.05.82,2.22,1.42-.1-.11-.23-.2-.14-.19.21.11.44.32.39.34l-.06-.02c.33.16.67.37,1,.6.35.2.71.41,1.06.61.7.41,1.38.82,1.97.91h-.07s1.17.32,1.17.32c.52.21-.34-.05.03.15.66.18,1.14.31,1.61.44.47.14.91.28,1.45.37.37.25,1.12.33,1.89.45.39.05.78.12,1.15.16.37.03.72.06,1,.12l-.06-.07c.3-.04.35.06.57.09-.03-.05-.31-.08-.13-.1,1.24.09,2.51,0,3.8,0,.64-.01,1.28-.12,1.93-.17.64-.06,1.29-.12,1.91-.28.91-.21.44-.45,1.61-.58l-.29.19c1.77-.62,3.65-1.21,5.24-2.15-.09.07-.07.1-.24.18.41-.06,1.27-.66,1.24-.73.25-.14.09.02.26-.04.36-.16.78-.59,1.01-.63.04,0-.08.08-.14.12.1-.08.35-.23.55-.36.19-.14.32-.25.19-.22.58-.37,1.03-.82,1.51-1.09.23-.28.95-.7.93-.9.07.16.99-.71,1.26-1.05-.07.13.32-.22.24-.05.34-.36.63-.72.51-.72.76-.55,1.15-1.43,1.63-1.7.42-.61.81-1.2,1.2-1.77.34-.6.67-1.19,1-1.76.11.12-.76,1.25-.58,1.3.61-1.11.9-1.78,1.45-2.89.16-.28-.02.2-.04.31.24-.58.53-1.12.77-1.66.21-.55.41-1.09.57-1.63.01,0-.01.13-.04.24.07-.21.2-.47.12-.47l-.06.21c-.23.29.11-.88.04-.94.1.42.34-1.04.44-.4.02-.14.04-.33-.02-.31.07-.2.12-.26.11-.04.17-.77.02-.52.2-1.21.03.01.01.15.03.23.03-.37.06-.73.18-1.32.02.04.05-.02.02.15.08-.51.11-.96.14-1.41.04-.46.09-.91.14-1.47.13.35.07-.38.21-.43v-.61s-.08.24-.08.24c.03-.53-.01-1.01.02-1.46.03.13.05.26.05.4.02-.33-.03-.67-.04-1l-.03.57c-.09-.54-.17.06-.16-.65.02.14-.02-.53.05-.81h0c-.05-.26-.11-.53-.09-.92.04-.11.15.07.18,0-.11-.25-.19-1.24-.34-1.55.04.1.11.1.12.06l-.12-.2c0-.25,0-.29.07-.26-.08-.74-.14.26-.18-.62.02.07.03.03.06.17-.12-.88-.42-1.66-.55-2.46.08-.27.19.69.24.39-.12-.58-.38-1.14-.59-1.7-.21-.56-.41-1.13-.63-1.65l.07.2c-.24-.07-.24-.81-.54-1.31.07.12.17.13.13.1-.24-.75-.75-1.41-1.33-2.43l.11.1c-.16-.44-.61-1.04-.85-1.47-.12-.1-.27-.34-.23-.16-.27-.74-.78-1.27-1.24-1.81-.44-.55-.95-1.01-1.32-1.59.11.12.29.26.2.16l-.81-.82c0,.13.07.15.18.37-.14-.07-.37-.3-.58-.48.42.31.09-.1-.04-.28,0,.04-.07.01-.07.04-.34-.52-.19.05-.72-.58h.06c-.24-.2-.48-.34-.72-.58-.04-.17.27.19.34.14-.33-.33-.82-.44-1.09-.78.17.11.39.26.57.38-.29-.37-.35-.38-.61-.61l.02.02-.59-.53.14.15c-.59-.18-.99-.65-1.73-.95.72.29.15,0,.26-.06-.15-.14-.39-.33-.3-.31-.36-.13-.48-.42-1.01-.55,0-.04-.35-.19-.23-.23-.44-.21.07.11.01.13-.71-.25-1.47-.99-2.53-1.24-.87-.32-1.07-.28-1.89-.49-.25-.15.27-.04.27-.04-.42-.2-.76-.3-1.18-.41.09,0,.01-.05-.1-.14-.34-.11-.26.04-.69-.12.09-.02.2-.05.38-.05-.41-.06-.83-.12-1.25-.18-.1-.09.27-.03.43-.03-.48-.09-1.23-.25-1.39-.19l.29.11c-.17-.04-.07-.1.06-.09.42.03.57.18.59.22l-.3-.05c.25.28,1.2.25,1.79.44-.1.02-.19.04-.29.06l.63.08c.12.08.18.19-.12.11.39.21.38.08.71.28.04.03.01.03-.02.02l.42.1c-.09,0,.03.12-.21.02.7.31,1.2.33,1.42.55l-.06-.02c.99.38.14-.06.92.15l.38.46.14-.06c.1.04.28.16.23.18.39.13-.04-.08.2-.03.42.34,1.31.66,1.32.87.21.02-.41-.3.11-.08.05.23.57.31.93.65-.18,0-.53-.29-.17.04.33.02.76.55,1.12.74.11-.12.73.49,1.3.88-.03,0,.21.22.52.48.3.27.64.63.85.86h-.03c.18,0,.64.45,1.01.76-.07.04-.15,0-.37-.14.11.1.22.2.32.31.1.05.21.14.42.34l-.15-.02c.4.44.9.8,1.34,1.43.1-.02-.18-.65.37-.04-.02.06-.07.13-.21-.02.05.05.18.17.25.3l-.26-.21c.18.3.17.1.33.33-.06.04.09.2.02.2-.05-.05-.12-.21-.21-.28.18.26.38.59.41.72.02-.05.08-.06.22.12.37.47.05.21.24.51.13.09.28.44.38.39.09.15.07.2.08.27.2.23.78,1.2.69.85l-.04-.07.03.04h0s0,0,0,0c.33.39.54.88.77,1.35.21.48.46.94.67,1.4h-.03c.27.55.54,1.23.77,1.6.08.16.09.41.02.36.16.43.22.46.36,1.11-.2-.42,0,.17-.19-.43.15.58.14.72.42,1.3-.14-.18.02.46.09.73l-.03-.42c.08.31.14.58.19.85l-.15-.12c.06.61.26,1.12.39,1.61.12.5.22.96.16,1.43.13.31-.03-.66.11-.39.05.56-.02,1.15-.03,1.32-.04.76.2.7.19,1.5.04-.1.15-.2.21.4,0,.56-.15.69-.2.34,0-.13,0-.2.02-.19-.02-.18-.05-.42-.09-.19l.05.07c-.02.28-.02,1.04-.09.86.01.42.06.18.1-.13-.11.71-.07,1.11-.16,1.84.03-.11.09-.22.08-.1-.13,1.07.08.49,0,1.21-.13.4-.13-.17-.2.57-.12.44-.13.08-.13-.1-.03.67-.26,1.22-.33,1.59l.02-.35c-.01.21-.04.38-.07.55l.12-.18c-.04.2-.1.37-.13.36,0,.22.18-.13.15.3-.11.26-.17.83-.31.89.26-.83-.13.06.04-.65-.02.14-.07.31-.14.5-.02.03-.02-.03,0-.09-.31.77.02.4-.2,1.23-.04-.13-.16.16-.2.29.12-.32.16-.12.09.19-.24.5-.18.57-.28.84l.14-.3c.02.13-.09.38-.2.75-.06.01.09-.34.02-.22-.06.44-.41.88-.62,1.43-.16.23-.12-.03-.25.18-.22.63-.4.61-.64,1.27.16-.14.16-.18.02.3l.46-1.06-.22.72c.16-.31.28-.69.38-.87-.09.35-.1.31.04.19-.33.37-.35.89-.68,1.34l-.18-.12c-.52.65-.68,1.31-1.29,2.19l.21-.27c0,.18-.36.56-.55.85-.04-.07-.19.09-.32.18.05.02-.48.62-.43.79l-.36.32c-.59.64-.51.87-1.09,1.48.11-.24-.18,0,.16-.44-.19.2-.37.38-.34.42-.15.08-.44.65-.69.77-.07.1-.04.18-.28.39-.04.01-.02-.03-.02-.03.02.03-.33.36-.08.24-.4.21-.84.61-1.28,1.01-.46.37-.92.71-1.28.86-.47.39-1.05.84-1.54,1.11.02-.04-.02-.03.08-.08-.69.33-.3.41-1.09.8-.44.13.37-.29.11-.19-.21-.13-.88.57-1.49.67l.12-.07c-.44.12-.95.54-1.62.84,0,0,.02-.03,0-.03-.42.3-1.3.64-1.96.91.18-.16.29-.15.13-.2-.29.12.13.11-.45.35-.2.04-.66.09-.75.01.19-.05.39-.08.57-.16-.32-.02-.74.19-1.05.25l.02-.06c-.88.23-.85.38-1.81.59l.11.03c-.51.21-.46-.01-.97.16l-.18-.12c-.34.07-1.2.33-1.84.4.35-.1,1.08-.3,1.52-.41-.35.04-1.17.18-1.35.26.14-.02.31-.09.45-.08-.41.2-.98.23-1.68.27.11-.28-1.82.03-2.32-.28-.61.01-1.22-.03-1.85-.1-.62-.12-1.27-.26-1.97-.37.46.29-.41-.06-.37.17-.33-.03-.45-.09-.48-.1l-.95-.39c-.21-.12.32.04.3-.02-.7-.2-.27-.17-.72-.35.07.1-.27.04-.67-.09l.53.25c-1.02-.14-.79-.41-1.78-.66l.33.05c-.5-.16-1.82-.64-2.33-.76-.07-.06-.16-.17.06-.09-.56-.29-1.2-.55-1.82-.82-.58-.32-1.13-.63-1.52-.93h.11c-.21-.1-.4-.13-.62-.32.03-.01.11,0,.02-.05-.12-.04-.55-.29-.79-.5l.25.11c-.92-.81-1.62-.98-2.38-1.68.11-.12-.57-.81-.9-1.15h.03c-.5-.51-.9-.96-1.34-1.36-.21-.21-.43-.41-.65-.62-.2-.23-.4-.47-.61-.72-.17-.39-.59-.94-1-1.58-.38-.65-.8-1.36-1.09-1.94.08.18-.14.04-.25-.17-.1-.29-.46-.73-.31-.75l.04.1c.03-.27-.27-.83-.48-1.28h-.21c-.24-1.3-1.28-3.17-1.16-3.95-.12-.29-.21-.67-.33-.96h.1c-.2-.85-.17-1.29-.37-2.34l.1.21c-.07-.6-.42-.72-.46-1.28l.14-.18c-.02-.53,0-1.06-.01-1.59,0-.26,0-.53-.02-.79,0-.26,0-.52,0-.79.02.02.06.05.06.22.04-.5.22-1.9,0-1.75.1,0,.15-1.08.19-1.65l.08.1c-.05-.5-.08-.52,0-1.19.04-.16.1-.12.04.08.13-.52,0-.43.2-1.04v.25c.15-.53.1-.49.11-.81.05-.35.3-1,.4-1.05-.04-.09-.02-.4.13-.69.05-.03.03.09.02.15.39-.83.37-1.32.69-1.88.04,0,.06-.03.09-.08-.26.68-.47,1.23-.46,1.17.09.03.31-.51.26-.03.11-.46.21-1.29.54-1.77.02-.02.04-.04.06-.05l-.02.06c.07-.11.11-.22.15-.33.09-.16.16-.26.23-.41.1-.03.33-.58.47-.84-.1-.03.08-.36-.15-.08.03-.04-.01.06-.1.23-.02.04-.04.09-.05.12v-.02c-.08.17-.19.4-.31.66.06-.23.13-.47.32-.73,0-.17.02-.35.04-.45.32-.28.81-.9.93-.94.21-.39.47-.85.72-1.27.27-.4.51-.78.6-1.06.14-.22.22-.2.3-.26-.07.13-.18.27-.21.35.27-.44.89-1.22.9-1.38.48-.43-.15.35.43-.32l-.05.11c1.29-1.15,1.73-2.28,3.39-3.32-.12.07-.18.1-.21.1.46-.3.92-.63,1.37-.96l.68-.5.72-.45c.48-.29.97-.58,1.45-.87.51-.24,1.02-.45,1.53-.64.57-.22.6-.34.92-.55l.17.06.56-.33c.84-.37,1.56-.34,2.64-.74l-.16-.04c.41-.09,1.27-.36,1.22-.26.04-.02.12-.11.28-.11l.02.05c.32-.13.65-.19.99-.27.79-.07-.09.24,1.05.09.42-.08,1.19-.33,1.03-.35-.17.02-.44.03-.46-.03l.39-.08c.05-.18.35-.39-.64-.37l-.67.2-.23-.05.57-.09c-.33-.03-.53.07-.76.14-.06-.03-.16-.05-.3-.05l-.64.25c-.09-.05.27-.18-.18-.13-.29.15.32.07-.18.24-.33,0-.25-.08-.61.07-.06-.03.01-.08.16-.13-.32.13-.88.24-1.03.37-.36-.01-1.12.3-1.12.16-.09.07-.53.32-.83.43.48-.37-1.11.38-1.04.14-.36.26-1.39.68-2.03,1.08.03-.03.1-.09.16-.11-.39.17-.53.17-.79.26,0,.13-.56.48-.81.75-.51.15.19-.31-.01-.34.08.09-.72.56-.52.55-.38.13-.32.14-.55.15.03.18-.3.22-.53.48-.53.25-.22-.05-.7.36-.27.13.15-.25.15-.25Zm-9.33,11.59h0c.05-.12.1-.22.13-.28-.03.06-.06.14-.13.28Zm-.48,1.16c.06-.14.12-.32.2-.51.05-.03.06.03.02.15,0-.07-.12.2-.21.36Zm1.72-2.1c-.07.18-.12.23-.15.24.04-.08.08-.18.14-.31v-.03s.01.05.01.09Z"/><path d="m8.64,19.23s.02-.04.03-.08c-.03.03-.05.06-.07.09v.08s.03-.07.04-.1Z"/><path d="m55.39,17.91v.02s0-.04,0-.05c0,.02,0,.02,0,.03Z"/><polygon points="5.67 38.81 5.69 38.8 5.65 38.7 5.67 38.81"/><path d="m51.41,12.32s-.02-.04-.05-.08c0,0,.02.04.05.08Z"/><path d="m49.17,10.34l-.31-.29c.14.13.23.22.31.29Z"/><path d="m47.34,8.96s-.05,0-.06.01h0s.06-.01.06-.01Z"/><path d="m58.1,41.21l-.03.09c-.06.2-.01.07.03-.09Z"/><path d="m59.48,30.48l.06.35c0-.19,0-.34-.06-.35Z"/><polygon points="51.64 51.5 51.64 51.49 51.58 51.54 51.64 51.5"/><path d="m59.56,31.33c.01-.19,0-.36-.02-.51,0,.16,0,.35.02.51Z"/><path d="m38.21,5.04l-.11-.03s0,.01-.02.01l.12.02Z"/><path d="m38.09,5.02l-.12-.02c.06.01.1.02.12.02Z"/><path d="m37.71,4.97c.09,0,.17.02.26.03-.09-.02-.19-.06-.26-.03Z"/><path d="m41.13,5.91l.04-.02s-.04,0-.04.02Z"/><path d="m42.01,6.2c-.21-.08-.5-.25-.8-.33l-.04.02c.16,0,.62.3.84.31Z"/><path d="m45.29,8.24l-.66-.39c.1.1.23.23-.08.07.79.56-.13-.17.74.32Z"/><path d="m47.28,9.52c-.35-.21-.03.05-.06.06.24.11.29.14.06-.06Z"/><path d="m57.6,22.76h-.1c.11.29.03-.02.1,0Z"/><polygon points="58.95 25.8 58.94 25.48 58.82 25.35 58.95 25.8"/><polygon points="58.67 27.82 58.64 27.69 58.74 28.2 58.67 27.82"/><path d="m48.51,53.01l.15.03c.16-.14.12-.27-.15-.03Z"/><path d="m37.41,58.15c-.14-.03-.49-.02-.7.06.28-.03.56-.02.7-.06Z"/><polygon points="7.55 41.68 7.66 41.9 7.48 41.47 7.55 41.68"/></g><path class="cls-2" d="m23.4,24.74c-.09.67-.13,1.35-.13,2.03.06,3.05.92,6.03,2.51,8.63,1.59,2.6,3.84,4.74,6.52,6.19,2.68-1.45,4.93-3.59,6.52-6.19,1.59-2.61,2.45-5.58,2.51-8.63,0-.68-.04-1.35-.13-2.03-.63.11-1.27.16-1.91.16-2.55,0-5.02-.88-6.98-2.5-1.97,1.62-4.43,2.5-6.98,2.5-.64,0-1.28-.05-1.91-.16h0Z"/><path class="cls-2" d="m28.8,30.84l2.26,3.01c.14.18.35.29.58.3,0,0,.02,0,.02,0h0c.22,0,.43-.1.57-.26l4.51-5.26"/></g></symbol>
	<symbol id="SustainablyDesigned" xmlns="http://www.w3.org/2000/svg" viewBox="0 0 64 64" stroke="black" fill="none"><g><g><path d="m28.94,58.77c.09-.02.05-.09-.19-.12l-.18.09.37.03Z"/><path d="m27.4,58.31c-.28.01-.62.06-.46.19.29-.07.35-.01.67-.1.24.02.4.1.36.14.09-.02.36.08.5.03-.29-.14-.67-.2-1.09-.19-.08-.04,0-.06.03-.07Z"/><path d="m9.21,45.55l.07.13s-.04-.08-.07-.13Z"/><path d="m5.59,32.06c0,.11.02.15.03.16-.01-.1-.02-.18-.03-.16Z"/><path d="m5.83,29.67c0,.05-.01.09-.02.14.01-.05.02-.11.02-.14Z"/><path d="m9.21,45.55c-.05-.11-.12-.22-.16-.34-.05,0,.07.18.16.34Z"/><path d="m24.23,57.86c.08.02.14.04.21.03-.07,0-.13-.03-.19-.05h-.02Z"/><path d="m13.06,50.43l.08.08s.06.03.1.04l-.18-.12Z"/><path d="m16.69,53.52c-.09-.06-.18,0-.23,0,.07,0,.15.03.23.08.01-.01.01-.04,0-.08Z"/><path d="m23.33,57.13l.13.03s-.09-.02-.13-.03Z"/><path d="m10.88,47.81s0-.04,0-.06c-.01,0,0,.03,0,.06Z"/><path d="m39.97,57.98s0-.01,0-.02c-.02.02-.03.03,0,.02Z"/><path d="m34.36,58.58l.08-.02s.01-.04.01-.06l-.09.07Z"/><path d="m6.72,25.39s0,.01,0,.02c-.02.11,0,.05,0-.02Z"/><path d="m37.72,6.42c-.42-.21.74.08.1-.19.05.05-.64,0-.1.19Z"/><path d="m24.11,57.81l-.19-.06c.08.03.14.05.19.06Z"/><path d="m37.82,6.23h0s-.07-.03-.07-.03c.03.01.04.02.07.03Z"/><path d="m11.02,16.35s-.06.03-.1.06c.01,0,.03,0,.1-.06Z"/><path d="m7.3,22.87l.08-.17c-.03.07-.06.12-.08.17Z"/><path d="m13.46,13.29c.07-.07.11-.08.21-.18l-.04.02s-.08.09-.17.16Z"/><path d="m16.59,10.67l-.07.03s-.07.05-.1.08l.17-.11Z"/><path d="m50.83,51.51c-.09.04-.15.06-.21.06.1,0-.34.44.21-.06Z"/><path d="m24.24,57.81s-.07.02-.13,0l.13.04s.02-.02,0-.04Z"/><path d="m13.03,12.62l.51-.44c-.14.12-.33.28-.51.44Z"/><path d="m57.78,23.82l.06.14c-.02-.06-.04-.11-.06-.14Z"/><path d="m15.02,10.86c.12-.04.23-.1.35-.17.02-.02.04-.05.05-.07l-.39.24Z"/><path d="m50.62,51.57h0s0,0,0,0Z"/><path d="m47.36,54.52c.52-.38.17-.28.23-.42.59-.48.34-.13.59-.23.36-.31.58-.62.87-.82.03,0,.09-.04.05.03.31-.41,1.1-.99,1.45-1.48.04-.02.06-.03.08-.03-.11.02-.17-.02-.19-.07.21-.19.34-.4.46-.42-.12.13-.11.15-.15.23.07-.07.13-.15.19-.23.27-.1-.25.32-.2.37.4-.42.76-1.01,1.09-1.3.15.01-.67.79-.19.43l-.5.47c.49-.25-.29.3.18.09.64-.64.64-.79,1.28-1.43.09-.19-.12-.01-.03-.21.71-1.07.85-.61,1.31-1.46.08-.25.03-.4.47-.9,0,.09,0,.18-.01.27.48-.74.1-.53.66-1.26-.04.17-.32.61-.24.51.4-.45.16-.4.4-.79l.15-.02c.52-.78.82-1.79,1.28-2.71,0,.07-.04.24.1.04.28-.59.47-1.26.75-1.9.13-.32.27-.64.4-.95.1-.32.21-.63.3-.93l.03-.49c.03-.11.1-.19.09-.07.17-.47-.06-.04-.04-.28.07-.27.15-.34.14-.16.09-.42.15-1.04.22-1.66.08-.62.19-1.23.3-1.68,0,.06,0,.12,0,.18.11-.7-.16-.82-.01-1.46v.13c.22-1.53-.02-3.23.08-4.41-.18-.2-.14-1.52-.36-1.59-.03-.88.1-.65-.14-1.87-.07-.32-.24-.45-.36-.84l.1-.04-.24-.51.05-.32c-.04-.12-.1-.24-.15-.36.04.15.06.32.02.31-.25-.55-.41-1.4-.37-1.43-.2-.43-.35-.88-.58-1.3.05.01.17.22.25.39-.38-.66.06-.17-.32-.77.02.09-.08-.02-.11-.02-.09-.34-.42-1.06-.7-1.57l.11.07c-.2-.49-.54-.94-.83-1.44-.32-.48-.58-1.01-.95-1.47.22.36.06.35-.16.08v-.18c-.18-.14.19.32-.15,0-.25-.36-.07-.31.11-.13l-.35-.41s.1.05.15.05c-.19-.13-.46-.82-.75-1v-.05c-.75-.91-1.16-1.27-1.8-1.99-.08.05-.33-.23-.6-.36-.5-.49-1-1.11-1.67-1.64-.51-.32-.19-.04-.44-.16.02-.1-.66-.6-.27-.39-.82-.6-1.03-.8-2.18-1.4.1.11.22.2.14.18-.21-.11-.43-.31-.38-.33l.06.02c-.33-.16-.66-.37-.99-.59-.34-.2-.7-.4-1.05-.61-.69-.41-1.35-.81-1.94-.9h.06s-1.16-.32-1.16-.32c-.51-.21.33.05-.03-.14-.65-.18-1.12-.31-1.58-.44-.46-.14-.9-.27-1.42-.36-.37-.25-1.1-.33-1.86-.45-.38-.05-.77-.12-1.13-.16-.37-.02-.7-.06-.98-.12l.06.07c-.29.04-.35-.06-.56-.09.03.05.31.08.13.1-1.22-.09-2.47,0-3.74,0-.63.01-1.26.12-1.9.17-.63.06-1.27.12-1.87.28-.9.2-.43.44-1.58.57l.29-.19c-1.74.61-3.59,1.2-5.16,2.11.08-.07.07-.1.23-.18-.4.06-1.25.65-1.22.72-.25.14-.09-.02-.25.04-.36.15-.77.58-.99.62-.04,0,.08-.08.13-.12-.1.08-.35.23-.54.35-.19.13-.31.25-.19.22-.57.36-1.02.8-1.49,1.08-.23.27-.93.69-.91.89-.07-.15-.97.7-1.24,1.04.07-.13-.31.21-.23.05-.34.36-.62.71-.5.7-.74.54-1.13,1.41-1.6,1.68-.41.6-.8,1.18-1.18,1.74-.34.59-.66,1.17-.99,1.73-.11-.12.74-1.23.57-1.28-.6,1.09-.88,1.75-1.43,2.84-.16.27.02-.19.04-.3-.24.57-.52,1.1-.76,1.63-.21.54-.4,1.07-.56,1.6-.01,0,.01-.12.04-.23-.07.2-.2.46-.12.46l.06-.2c.23-.28-.11.87-.04.93-.1-.42-.33,1.03-.43.39-.02.14-.04.32.02.31-.07.2-.11.26-.11.04-.16.76-.02.51-.2,1.19-.03-.01-.01-.15-.03-.23-.03.36-.06.72-.17,1.3-.01-.04-.05.02-.02-.15-.08.5-.1.94-.14,1.38-.04.45-.09.89-.14,1.45-.13-.34-.07.37-.21.42v.6s.08-.24.08-.24c-.03.53.01.99-.02,1.44-.03-.13-.04-.26-.05-.39-.02.33.03.66.04.98l.03-.56c.09.53.16-.06.15.64-.02-.14.02.52-.05.8h0c.05.26.11.52.09.91-.04.1-.15-.07-.17,0,.11.25.18,1.22.34,1.52-.04-.1-.11-.1-.12-.06l.12.2c0,.24,0,.28-.06.25.08.73.13-.26.18.61-.02-.07-.03-.03-.06-.17.12.86.41,1.63.54,2.42-.08.26-.19-.67-.23-.38.12.57.37,1.12.58,1.68.21.56.4,1.11.62,1.62l-.07-.2c.23.07.23.8.53,1.29-.07-.12-.17-.13-.13-.1.24.73.74,1.38,1.31,2.39l-.11-.1c.16.43.6,1.02.84,1.45.12.1.26.33.23.15.27.72.77,1.25,1.22,1.78.44.54.93.99,1.3,1.56-.11-.12-.29-.25-.2-.16l.8.81c0-.12-.06-.14-.18-.36.14.07.36.29.57.48-.41-.31-.09.1.04.28,0-.04.06-.01.07-.04.33.51.19-.05.71.57h-.06c.24.19.48.34.7.57.04.16-.26-.19-.33-.14.33.32.81.43,1.07.77-.17-.11-.39-.26-.56-.37.28.36.34.38.6.6l-.02-.02.58.52-.14-.15c.58.17.98.64,1.71.94-.71-.28-.15,0-.26.06.15.13.38.33.29.31.35.13.47.41.99.54,0,.04.34.19.23.23.43.21-.07-.11-.01-.12.69.25,1.44.97,2.49,1.22.86.31,1.05.27,1.86.48.25.14-.26.04-.26.04.42.2.75.3,1.17.4-.09,0-.01.05.1.13.33.1.25-.04.68.12-.09.02-.2.05-.37.05.4.06.82.12,1.23.18.09.09-.27.03-.42.03.47.09,1.21.25,1.37.19l-.29-.11c.17.04.07.1-.06.09-.41-.03-.56-.17-.58-.21l.3.05c-.25-.28-1.18-.24-1.76-.43.09-.02.19-.04.28-.06l-.62-.08c-.11-.08-.17-.19.12-.11-.38-.21-.38-.07-.7-.27-.03-.03-.01-.03.02-.02l-.41-.1c.09,0-.03-.12.21-.02-.69-.31-1.18-.32-1.4-.54l.06.02c-.98-.38-.13.06-.91-.14l-.37-.45-.14.06c-.1-.04-.28-.16-.23-.18-.39-.13.04.07-.2.03-.41-.34-1.28-.65-1.3-.85-.21-.02.41.29-.11.08-.05-.22-.57-.31-.92-.64.17,0,.52.29.17-.04-.33-.02-.75-.54-1.1-.73-.1.11-.72-.48-1.28-.86.03,0-.21-.21-.51-.47-.3-.26-.62-.62-.84-.85h.03c-.18,0-.63-.45-.99-.75.07-.04.15,0,.36.14-.1-.1-.22-.19-.32-.3-.1-.05-.21-.13-.41-.34l.14.02c-.39-.43-.89-.78-1.32-1.41-.1.02.17.64-.36.04.02-.05.07-.13.21.02-.05-.05-.18-.17-.25-.29l.26.2c-.18-.3-.16-.1-.32-.32.06-.04-.08-.19-.02-.2.05.05.12.21.21.27-.18-.25-.37-.58-.4-.71-.02.05-.08.06-.22-.12-.36-.46-.05-.21-.23-.5-.13-.08-.28-.43-.37-.38-.09-.14-.07-.2-.08-.27-.2-.23-.77-1.18-.68-.84l.04.07-.03-.04h0s0,0,0,0c-.33-.38-.53-.86-.76-1.33-.21-.47-.46-.92-.66-1.38h.03c-.26-.54-.53-1.21-.76-1.57-.07-.16-.09-.41-.02-.35-.16-.42-.21-.46-.36-1.09.2.41,0-.16.18.43-.15-.57-.13-.71-.42-1.28.14.18-.02-.45-.09-.72l.03.41c-.08-.3-.13-.57-.19-.84l.15.12c-.05-.6-.25-1.1-.38-1.59-.11-.49-.21-.95-.15-1.41-.12-.3.03.65-.1.38-.05-.55.02-1.13.03-1.3.04-.75-.2-.69-.18-1.48-.04.1-.15.2-.21-.39,0-.55.15-.68.2-.33,0,.13,0,.19-.02.19.02.18.05.41.09.19l-.04-.07c.02-.27.02-1.02.09-.85-.01-.41-.06-.18-.1.13.11-.7.07-1.1.16-1.81-.03.11-.09.21-.08.1.13-1.05-.08-.48,0-1.19.13-.4.13.16.19-.56.11-.43.13-.08.13.1.03-.66.25-1.2.33-1.57l-.02.35c.01-.21.04-.37.07-.54l-.11.18c.04-.2.1-.36.13-.35,0-.21-.18.13-.14-.29.11-.25.17-.81.3-.87-.26.82.13-.06-.04.64.02-.14.07-.3.13-.49.02-.03.01.03,0,.09.31-.76-.02-.39.2-1.21.04.12.15-.16.2-.29-.11.32-.16.12-.09-.19.24-.49.17-.56.28-.83l-.14.3c-.02-.12.08-.38.2-.74.06-.01-.09.34-.02.22.06-.43.41-.86.61-1.41.16-.23.12.02.25-.18.22-.62.39-.6.63-1.24-.16.14-.16.18-.02-.29l-.45,1.05.21-.71c-.15.31-.27.67-.38.85.09-.34.1-.3-.04-.18.32-.37.34-.88.67-1.32l.17.12c.51-.64.67-1.28,1.27-2.16l-.21.27c0-.18.35-.55.54-.84.04.07.19-.09.31-.18-.05-.02.47-.61.42-.78l.36-.32c.58-.63.5-.85,1.08-1.45-.11.23.18,0-.16.44.19-.2.36-.37.33-.41.14-.08.44-.64.68-.75.06-.1.04-.18.28-.38.03-.01.02.03.02.03-.02-.03.33-.36.08-.23.39-.2.83-.6,1.26-.99.45-.36.91-.7,1.26-.84.47-.38,1.04-.83,1.52-1.09-.02.04.02.03-.08.08.68-.33.29-.41,1.07-.79.43-.13-.36.29-.11.18.21.13.87-.56,1.47-.66l-.12.07c.43-.12.93-.53,1.59-.83,0,0-.02.03,0,.03.41-.29,1.28-.63,1.93-.89-.18.16-.28.15-.13.19.29-.12-.13-.11.45-.34.2-.04.65-.09.73-.01-.19.05-.38.08-.56.16.32.02.73-.19,1.03-.25l-.02.06c.86-.22.84-.38,1.78-.58l-.11-.03c.5-.21.45.01.95-.16l.18.12c.34-.07,1.18-.33,1.81-.39-.35.1-1.06.29-1.5.4.34-.04,1.15-.18,1.32-.26-.14.02-.31.09-.44.08.4-.19.96-.23,1.65-.26-.11.28,1.79-.03,2.28.28.6-.01,1.2.03,1.82.1.61.12,1.24.26,1.94.36-.45-.29.41.06.36-.17.33.03.45.09.47.1l.93.38c.21.12-.31-.03-.3.02.69.2.27.17.71.34-.07-.1.27-.04.65.09l-.53-.24c1,.14.77.41,1.75.65l-.32-.05c.49.16,1.79.63,2.3.75.07.06.15.17-.06.08.55.29,1.19.54,1.79.81.57.31,1.12.62,1.5.92h-.11c.2.1.4.12.61.32-.03.01-.11,0-.02.05.12.04.54.29.77.49l-.24-.11c.91.79,1.59.97,2.34,1.66-.1.12.56.79.89,1.13h-.03c.49.5.89.94,1.32,1.34.21.2.42.4.64.61.19.23.39.46.6.71.16.38.58.92.98,1.55.37.64.79,1.34,1.08,1.91-.08-.18.13-.04.24.17.1.29.46.72.31.73l-.04-.1c-.03.27.27.82.47,1.26h.21c.23,1.28,1.26,3.12,1.14,3.88.12.29.21.66.33.95h-.1c.2.83.17,1.27.36,2.31l-.1-.2c.07.59.41.71.45,1.26l-.14.18c.02.52,0,1.04.01,1.56,0,.26,0,.52.02.78,0,.26,0,.52,0,.77-.02-.02-.06-.05-.06-.22-.04.49-.22,1.87,0,1.72-.1,0-.14,1.06-.19,1.63l-.08-.1c.05.49.08.51,0,1.17-.04.15-.1.12-.04-.08-.13.51,0,.42-.2,1.03v-.24c-.15.52-.1.49-.11.79-.05.34-.29.99-.4,1.04.04.09.02.39-.13.68-.05.03-.03-.09-.01-.14-.38.82-.37,1.3-.68,1.85-.03,0-.06.03-.09.08.25-.67.46-1.21.45-1.15-.09-.03-.3.5-.26.03-.11.45-.21,1.27-.53,1.74-.02.02-.04.04-.06.05l.02-.06c-.07.11-.11.22-.14.33-.09.15-.15.25-.23.41-.1.03-.33.57-.46.83.1.03-.08.36.15.08-.03.04.01-.05.09-.23.02-.04.04-.09.05-.12v.02c.08-.17.19-.39.31-.65-.06.23-.12.46-.31.72,0,.16-.02.34-.04.44-.32.28-.79.88-.92.93-.21.39-.46.84-.71,1.25-.27.39-.5.77-.59,1.05-.13.22-.22.2-.3.25.07-.13.18-.26.21-.34-.26.43-.88,1.2-.88,1.35-.47.43.15-.34-.42.31l.05-.11c-1.27,1.13-1.7,2.24-3.34,3.26.12-.07.17-.1.21-.1-.45.3-.9.62-1.35.95l-.67.5-.71.44c-.48.29-.95.57-1.42.86-.5.23-1,.44-1.5.63-.56.22-.59.33-.9.54l-.16-.05-.55.33c-.83.36-1.53.33-2.6.73l.16.03c-.4.08-1.25.35-1.2.25-.04.02-.11.1-.28.11l-.02-.05c-.32.12-.64.19-.97.27-.78.07.08-.24-1.04-.09-.41.08-1.17.33-1.01.34.17-.02.44-.03.45.03l-.38.08c-.05.17-.34.38.63.36l.66-.19.23.05-.56.08c.33.03.52-.06.74-.14.06.03.16.05.29.05l.63-.25c.09.05-.27.17.18.13.29-.15-.32-.07.17-.24.33,0,.25.08.6-.07.06.03-.01.07-.15.13.32-.13.86-.23,1.01-.36.35.01,1.1-.29,1.1-.15.09-.07.52-.31.81-.42-.47.37,1.1-.38,1.03-.14.35-.26,1.37-.67,2-1.06-.03.03-.09.09-.16.11.38-.17.52-.17.78-.26,0-.13.55-.47.8-.73.5-.15-.19.3.01.33-.08-.08.71-.55.51-.54.38-.13.31-.14.54-.14-.03-.18.3-.21.52-.47.52-.24.21.05.69-.35.27-.13-.14.25-.14.25Zm9.18-11.4h0c-.05.12-.1.21-.13.28.03-.06.06-.14.13-.28Zm.47-1.14c-.05.14-.12.32-.19.5-.05.03-.06-.03-.02-.15,0,.07.12-.19.21-.36Zm-1.7,2.07c.07-.18.12-.23.15-.24-.04.08-.08.18-.14.31v.03s-.01-.05-.01-.09Z"/><path d="m55.28,44.41s-.02.04-.03.07c.02-.03.05-.06.07-.09v-.08s-.03.06-.04.09Z"/><path d="m9.29,45.7v-.02s0,.04,0,.05c0-.02,0-.02,0-.03Z"/><polygon points="58.2 25.14 58.18 25.15 58.23 25.25 58.2 25.14"/><path d="m13.21,51.2s.02.04.05.08c0,0-.02-.04-.05-.08Z"/><path d="m15.4,53.15l.31.29c-.13-.13-.23-.21-.31-.29Z"/><path d="m17.21,54.52s.05,0,.06-.01h0s-.06.01-.06.01Z"/><path d="m6.62,22.79l.03-.08c.05-.2.01-.07-.03.08Z"/><path d="m5.26,33.34l-.06-.34c0,.19,0,.34.06.34Z"/><polygon points="12.98 12.66 12.98 12.67 13.03 12.62 12.98 12.66"/><path d="m5.18,32.51c-.01.19,0,.35.02.5,0-.16,0-.34-.02-.5Z"/><path d="m26.19,58.37l.11.03s0-.01.02-.01l-.12-.02Z"/><path d="m26.31,58.39l.12.02c-.05-.01-.1-.02-.12-.02Z"/><path d="m26.68,58.44c-.09,0-.17-.02-.25-.03.09.02.19.06.25.03Z"/><path d="m23.31,57.51l-.04.02s.04,0,.04-.02Z"/><path d="m22.45,57.23c.2.08.49.25.79.33l.04-.02c-.15,0-.61-.3-.82-.31Z"/><path d="m19.22,55.22l.65.39c-.1-.1-.22-.23.08-.07-.78-.55.13.17-.72-.32Z"/><path d="m17.26,53.96c.35.21.03-.05.06-.06-.23-.11-.29-.14-.06.06Z"/><path d="m7.11,40.93h.1c-.11-.28-.03.02-.1,0Z"/><polygon points="5.78 37.95 5.8 38.26 5.91 38.39 5.78 37.95"/><polygon points="6.06 35.96 6.09 36.09 5.99 35.58 6.06 35.96"/><path d="m16.06,11.17l-.14-.03c-.16.14-.11.26.14.03Z"/><path d="m26.98,6.12c.14.03.49.02.69-.06-.27.03-.55.02-.69.06Z"/><polygon points="56.36 22.32 56.24 22.11 56.42 22.53 56.36 22.32"/></g><path class="cls-1" d="m27.3,21.64v8.16c.09-.05,3.08-.45,4.54-.4,2.02.07,5.16.45,5.01.43l-.04-7.19s-.73-2.53-.73-2.81c0,0-4.17-1.52-7.99,0,0,0-.84.17-.79.76v1.04Z"/><path class="cls-2" d="m27.3,21.64v8.17c.5-.17,3.02-.39,4.54-.35,1.97.05,5.06.44,5.03.38l-.05-7.19s-.73-2.53-.73-2.81c0,0-4.17-1.52-7.99,0,0,0-.84.17-.79.76v1.04Z"/><path class="cls-2" d="m27.3,21.64v20.77s.11,2.31,1.29,2.76c0,0,1.41,1.29,6.14.39,0,0,1.97-.17,2.08-3.43.11-3.27,0-19.48,0-19.48,0,0-.73-2.53-.73-2.81,0,0-4.17-1.52-7.99,0,0,0-.84.17-.79.76v1.04Z"/><polygon class="cls-2" points="27.3 20.56 26.36 20.56 26.36 21.32 26.49 21.57 27.3 21.57 27.3 20.56"/></g></symbol>
	<symbol id="Advocacy" xmlns="http://www.w3.org/2000/svg" viewBox="0 0 64 64" stroke="black" fill="none"><g><path d="m53.32,14.8c-.08-.05-.1.03.05.22l.19.07-.25-.28Z"/><path d="m54.09,16.24c.21.19.49.4.47.19-.26-.16-.26-.25-.55-.41-.15-.19-.22-.36-.16-.36-.07-.05-.2-.32-.33-.38.11.31.34.63.64.92.03.09-.05.03-.08.03Z"/><path d="m58,38.52l.05-.14s-.03.09-.05.14Z"/><path d="m50.9,50.84c.07-.08.09-.12.09-.14-.06.08-.11.15-.09.14Z"/><path d="m49,52.39s.08-.06.11-.09c-.05.03-.09.06-.11.09Z"/><path d="m58,38.52c-.04.12-.07.25-.13.36.03.04.09-.18.13-.36Z"/><path d="m56.05,18.85c-.04-.07-.08-.13-.13-.17.04.05.07.11.1.17h.02Z"/><path d="m58.74,32.24v-.12s-.02-.07-.04-.1l.04.21Z"/><path d="m58.35,27.4c.02.11.13.13.17.16-.05-.06-.09-.13-.11-.22-.02,0-.04.02-.06.06Z"/><path d="m56.17,20.02l-.07-.12s.05.08.07.12Z"/><path d="m58.43,35.7s-.03.02-.04.04c.01,0,.03-.01.04-.04Z"/><path d="m44.8,7.43s0,.01,0,.02c.03,0,.04,0,0-.02Z"/><path d="m49.27,11.04l-.07-.04s-.04.02-.05.03h.12Z"/><path d="m45.28,54.83s.01,0,.02,0c.1-.07.04-.03-.02,0Z"/><path d="m9.31,46.17c.16.45-.48-.59-.21.07,0-.07.46.46.21-.07Z"/><path d="m56.09,18.97l.09.18c-.04-.08-.07-.14-.09-.18Z"/><path d="m9.1,46.24h0s.03.07.03.07c-.01-.03-.02-.04-.03-.07Z"/><path d="m35.68,58.24s.07.02.11.03c0,0-.03-.02-.11-.03Z"/><path d="m43.05,56.22l-.18.07c.07-.02.13-.05.18-.07Z"/><path d="m31.72,58.68c-.1,0-.14-.03-.28-.02h.04c.05,0,.12,0,.24.02Z"/><path d="m27.58,58.32l.07.03s.09,0,.13.01l-.2-.05Z"/><path d="m32.33,4.28c.09.03.15.07.19.1-.06-.08.56-.07-.19-.1Z"/><path d="m56,18.88s.06.04.09.09l-.07-.12s-.03,0-.03.03Z"/><path d="m31.54,59.48l-.68-.05c.19.02.44.04.68.05Z"/><path d="m7.39,19.2l.06-.15c-.03.05-.05.1-.06.15Z"/><path d="m28.85,59.31c-.12-.05-.24-.09-.37-.13-.03,0-.06,0-.08.01l.45.11Z"/><path d="m32.52,4.38h0s0,0,0,0Z"/><path d="m36.99,4.61c-.64-.1-.32.08-.47.14-.77-.08-.34-.15-.59-.26-.48-.04-.86.03-1.22-.03-.02-.02-.09-.04,0-.06-.52.08-1.51-.08-2.11.02-.04-.01-.07-.03-.08-.04.09.07.11.14.09.19-.29,0-.53.05-.64-.03.18,0,.19-.03.27-.05-.1,0-.2.01-.3.03-.27-.12.41-.05.41-.13-.59.01-1.27.18-1.72.15-.1-.12,1.05-.08.45-.17l.7.02c-.54-.17.43,0-.07-.19-.93,0-1.03.1-1.96.11-.2.08.08.1-.13.17-1.28.26-1.05-.18-1.99.11-.23.12-.31.26-.99.31.07-.06.13-.13.2-.18-.88.18-.46.31-1.38.43.15-.09.67-.21.54-.19-.61.03-.4.17-.85.28l-.12-.1c-.94.19-1.88.69-2.87,1.03.04-.05.2-.15-.05-.1-.62.23-1.25.57-1.91.82-.33.13-.65.27-.97.4-.31.16-.6.31-.89.45l-.37.34c-.1.06-.21.06-.11-.01-.45.22.01.07-.17.23-.24.15-.36.14-.22.02-.37.24-.86.64-1.35,1.04-.5.39-1.02.75-1.43.99.04-.05.08-.09.12-.14-.58.43-.48.7-1.04,1.06l.08-.1c-1.25.95-2.3,2.34-3.22,3.12-.02.28-.99,1.2-.88,1.41-.61.66-.54.4-1.24,1.45-.18.28-.15.5-.34.87l-.1-.05-.19.54-.27.19c-.06.12-.1.24-.15.36.07-.14.19-.28.2-.24-.22.57-.71,1.31-.77,1.3-.17.45-.38.89-.51,1.35-.03-.05.03-.28.1-.46-.2.75-.17.08-.32.78.06-.08.04.07.06.1-.18.31-.46,1.06-.63,1.63l-.03-.13c-.21.5-.29,1.06-.44,1.63-.11.57-.3,1.14-.37,1.74.1-.42.21-.3.17.05l-.14.12c.04.24.1-.36.12.12-.08.44-.18.28-.18.01l-.04.55s-.04-.1-.08-.14c.04.23-.26.92-.18,1.26l-.04.03c-.11,1.2-.07,1.75-.13,2.73.09.02.08.4.17.69,0,.72-.08,1.52.02,2.38.13.6.11.17.21.43-.09.05.04.91-.09.47.16,1.03.17,1.32.56,2.58,0-.15-.02-.31.03-.23.07.23.09.53.04.51l-.02-.06c.12.35.21.74.29,1.14.1.39.21.79.32,1.19.2.79.39,1.56.75,2.05l-.04-.06.59,1.07c.22.52-.2-.28-.08.13.34.6.58,1.03.82,1.45.23.43.45.84.76,1.28.09.44.56,1.03,1.02,1.66.24.31.47.64.7.93.25.28.46.55.62.79v-.09c.25.18.21.29.34.46.02-.06-.17-.28-.02-.16.81.94,1.77,1.78,2.68,2.7.46.45.99.83,1.49,1.24.5.41,1,.83,1.55,1.15.79.5.62,0,1.55.73l-.34-.07c1.69.82,3.45,1.72,5.23,2.19-.11-.01-.13.02-.29-.04.33.24,1.37.43,1.4.36.28.08.05.08.21.16.37.15.98.13,1.16.27.03.02-.11,0-.18-.01.13.01.41.09.64.14.23.04.4.05.29-.02.67.15,1.31.15,1.85.3.36-.03,1.17.17,1.3.02-.06.16,1.2.2,1.64.14-.15.04.38.07.21.13.5-.01.96-.07.87-.15.93.14,1.83-.2,2.36-.05.73-.14,1.43-.27,2.11-.4.67-.18,1.32-.36,1.96-.54,0,.17-1.42.35-1.33.51,1.22-.36,1.89-.62,3.07-1.02.31-.08-.15.13-.25.19.58-.24,1.17-.42,1.72-.63.54-.24,1.06-.48,1.55-.75,0,.01-.1.08-.2.14.2-.1.48-.19.42-.25l-.19.11c-.37.04.7-.55.7-.64-.23.37.98-.5.59.03.12-.08.26-.21.21-.23.19-.09.27-.1.1.05.67-.43.38-.36,1-.71.02.03-.1.12-.14.19.28-.24.56-.47,1.06-.81-.02.04.06.02-.09.13.42-.31.75-.6,1.1-.9.36-.29.71-.58,1.15-.94-.15.34.32-.22.46-.15l.43-.44-.23.11c.4-.36.7-.72,1.05-1.02-.07.11-.15.22-.24.32.25-.22.45-.49.68-.74l-.42.38c.32-.44-.16-.08.35-.57-.09.11.36-.39.61-.54h0c.15-.22.3-.45.59-.71.1-.05.06.16.12.13.1-.26.74-1.01.85-1.34-.04.1,0,.15.04.13l.06-.23c.17-.18.21-.2.23-.13.47-.58-.28.09.31-.57-.04.06,0,.04-.08.16.54-.71.87-1.47,1.35-2.13.25-.14-.35.62-.11.44.33-.49.54-1.07.79-1.62.25-.55.51-1.09.72-1.62l-.09.19c-.12-.22.41-.74.54-1.31-.04.13.03.21.02.17.36-.7.46-1.53.78-2.66v.15c.2-.42.3-1.17.45-1.65-.02-.15.05-.43-.05-.27.33-.71.34-1.45.41-2.16.07-.7.04-1.39.19-2.06,0,.16.02.39.03.26v-1.16c-.08.09-.05.15-.12.39-.05-.15-.05-.47-.07-.75.07.52.13,0,.17-.23-.02.04-.05-.04-.08-.02.13-.6-.17-.1-.1-.92l.05.04c-.03-.31-.1-.58-.1-.91.09-.14.06.32.14.34,0-.47-.27-.9-.21-1.32.04.2.09.47.13.67.06-.47.02-.52,0-.86v.03s-.04-.79-.04-.79v.2c-.3-.55-.25-1.16-.56-1.9.3.71.11.11.23.14-.01-.2-.04-.51,0-.43-.16-.34-.04-.63-.33-1.1.03-.03-.11-.38,0-.33-.16-.46-.03.13-.08.1-.32-.68-.34-1.74-.91-2.67-.39-.84-.56-.95-1-1.69-.08-.28.22.16.22.16-.16-.44-.32-.75-.55-1.13.07.07.05-.03.02-.17-.16-.31-.21-.15-.41-.58.08.05.18.11.3.23-.25-.33-.5-.67-.76-1.01,0-.13.21.17.33.29-.27-.4-.7-1.05-.85-1.12l.13.28c-.09-.15.02-.12.1-.02.28.32.28.53.26.57l-.18-.25c-.02.38.68,1.02.95,1.58-.08-.05-.16-.11-.25-.16l.39.51c.02.14,0,.26-.16,0,.13.43.22.33.31.7,0,.04,0,.03-.03,0l.23.37c-.07-.06-.06.11-.16-.14.27.72.62,1.08.61,1.39l-.03-.06c.43.97.14.05.55.76l-.06.59.14.06c.04.1.08.32.04.29.19.37.03-.08.16.12.05.54.46,1.39.32,1.55.13.16-.08-.5.14.03-.12.2.19.63.2,1.12-.12-.13-.17-.58-.15-.09.22.25.15.93.27,1.32.16,0,.17.87.3,1.54-.02-.02,0,.3.03.71.03.4,0,.9,0,1.21l-.02-.02c.14.12.13.77.18,1.25-.08-.02-.11-.11-.16-.36,0,.15.02.3,0,.45.04.11.05.25.05.54l-.09-.12c-.03.59.08,1.2-.06,1.96.09.05.34-.58.29.23-.05.02-.14.05-.13-.17,0,.07,0,.25-.03.39l-.04-.33c-.08.34.05.19,0,.47-.07-.01-.08.2-.13.15,0-.07.06-.24.05-.35-.05.31-.15.68-.22.8.04-.02.09.01.07.24-.07.59-.11.19-.19.53.03.15-.11.51,0,.54-.04.17-.09.19-.14.25-.02.31-.3,1.41-.11,1.09l.02-.08s0,.03,0,.05h0s0,0,0,0c-.04.51-.24,1.01-.41,1.5-.19.49-.34.99-.52,1.46h-.03c-.19.55-.48,1.23-.58,1.66-.06.17-.23.35-.24.27-.19.42-.17.48-.53,1.04.16-.44-.12.12.18-.44-.3.51-.41.6-.62,1.22.03-.23-.31.33-.45.58l.28-.32c-.16.27-.31.51-.47.74l-.02-.19c-.39.47-.61.97-.87,1.42-.27.43-.53.84-.91,1.13-.13.31.45-.49.35-.2-.36.43-.83.8-.95.92-.57.51-.35.64-.93,1.19.1-.05.25-.04-.13.43-.39.4-.59.38-.38.1.09-.1.14-.14.15-.12.11-.14.26-.33.08-.2l-.02.08c-.21.18-.75.72-.68.54-.29.31-.09.17.16-.02-.58.43-.84.74-1.42,1.19.1-.06.22-.09.13-.02-.85.66-.29.4-.87.85-.38.19.03-.21-.54.26-.39.23-.14-.04-.02-.17-.5.46-1.05.68-1.36.89l.27-.23c-.16.14-.3.24-.44.34l.21-.04c-.17.11-.33.19-.34.16-.16.15.22.04-.11.31-.26.1-.71.46-.85.41.77-.4-.14-.05.49-.43-.12.08-.27.17-.45.26-.03,0,.01-.03.06-.07-.77.33-.27.3-1.01.73.06-.11-.22,0-.35.06.31-.15.2.03-.07.2-.53.18-.53.28-.8.4l.31-.12c-.08.1-.33.21-.68.39-.05-.03.31-.18.17-.14-.35.26-.91.33-1.46.57-.28.05-.07-.1-.31-.05-.6.29-.71.15-1.35.44.22.02.24-.02-.2.22l1.08-.43-.66.36c.33-.11.68-.29.88-.34-.31.18-.29.15-.1.16-.5.03-.88.38-1.43.47l-.04-.21c-.83.1-1.41.44-2.47.64l.34-.04c-.12.13-.65.14-.99.22.02-.07-.2-.07-.35-.09.03.05-.78.1-.86.26l-.49-.03c-.87.04-.98.25-1.82.27.25-.09-.13-.12.43-.2-.28.01-.53,0-.53.06-.16-.05-.77.15-1.03.05-.12.02-.16.1-.47.07-.03-.02,0-.04,0-.04,0,.04-.49.02-.22.11-.43-.13-1.03-.16-1.62-.19-.59-.06-1.16-.15-1.51-.3-.61-.06-1.34-.15-1.88-.31.04-.01,0-.03.11,0-.73-.25-.51.08-1.34-.2-.4-.22.47.05.21-.06-.06-.25-1.03-.22-1.53-.58l.14.03c-.39-.23-1.05-.29-1.74-.55,0,0,.04,0,.02-.03-.51-.08-1.37-.47-2.03-.74.24.01.31.09.23-.05-.29-.12.02.17-.57-.08-.17-.12-.53-.4-.54-.52.17.1.33.22.52.29-.21-.24-.66-.39-.92-.56l.06-.03c-.78-.46-.88-.33-1.7-.87l.06.1c-.51-.21-.31-.34-.8-.57l-.04-.21c-.29-.19-1.09-.62-1.58-1.02.32.18.97.55,1.37.79-.28-.21-.96-.7-1.14-.77.11.08.28.16.38.26-.43-.15-.86-.53-1.38-1,.28-.12-1.31-1.27-1.44-1.84-.44-.43-.84-.89-1.24-1.38-.35-.53-.71-1.08-1.13-1.66.12.53-.25-.34-.38-.14-.21-.26-.26-.38-.27-.41l-.39-.95c-.06-.24.2.25.23.2-.35-.64-.07-.31-.26-.76-.02.12-.22-.16-.41-.54l.2.55c-.62-.82-.26-.85-.79-1.73l.2.27c-.24-.47-.83-1.74-1.12-2.19,0-.1.01-.23.1-.02-.19-.6-.46-1.24-.71-1.87-.19-.64-.36-1.25-.42-1.74l.07.08c-.07-.22-.19-.38-.21-.67.03.01.07.08.05-.02-.06-.11-.18-.6-.2-.91l.1.25c-.08-1.22-.45-1.84-.49-2.88.16,0,.17-.97.18-1.45l.02.02c0-.71.04-1.31.02-1.91,0-.3-.01-.59-.02-.9.03-.3.05-.61.08-.94.16-.39.25-1.08.41-1.82.19-.73.4-1.53.6-2.15-.07.19-.12-.07-.06-.3.14-.28.19-.84.31-.75l-.04.1c.21-.17.39-.78.56-1.25l-.15-.15c.75-1.09,1.34-3.15,1.98-3.61.12-.29.32-.62.45-.92l.08.07c.45-.74.79-1.03,1.4-1.92l-.07.22c.37-.47.21-.81.58-1.23l.23-.03c.36-.39.75-.76,1.12-1.13.19-.19.37-.38.54-.58.19-.18.38-.37.55-.56,0,.03,0,.08-.12.2.38-.33,1.51-1.19,1.24-1.23.08.07.87-.66,1.3-1.04v.13c.3-.39.3-.42.83-.85.14-.08.16-.01-.03.09.46-.27.3-.31.88-.6l-.18.18c.48-.27.42-.28.65-.49.28-.21.92-.5,1.03-.46.03-.09.27-.29.58-.4.05.01-.04.08-.09.11.87-.32,1.2-.67,1.82-.84.02.03.07.02.12.01-.67.3-1.2.54-1.16.51.04.08.58-.14.21.17.4-.25,1.06-.76,1.64-.87.03,0,.06,0,.08,0l-.05.03c.13-.03.24-.08.34-.13.18-.04.29-.07.46-.13.09.05.65-.18.93-.27-.05-.09.32-.2-.05-.16.05,0-.05.03-.23.1-.04.02-.09.04-.12.05h.02c-.18.05-.42.13-.69.23.2-.12.42-.24.75-.29.12-.11.26-.23.34-.29.43.03,1.21-.07,1.33,0,.43-.13.94-.27,1.41-.39.48-.09.91-.19,1.18-.33.25-.06.3.01.4.03-.14.04-.32.06-.39.1.5-.12,1.49-.23,1.61-.34.65.03-.35.14.53.08l-.12.05c1.73.1,2.84-.39,4.75.06-.13-.04-.2-.05-.22-.08.54.11,1.09.2,1.65.29l.84.12.83.19c.55.14,1.1.27,1.64.4.53.19,1.04.4,1.53.63.57.25.66.18,1.04.26l.08.16.63.16c.86.34,1.34.86,2.39,1.35l-.09-.14c.35.23,1.15.65,1.05.68.04.01.16,0,.28.12l-.02.05c.32.14.6.33.89.5.61.51-.23.11.68.81.35.24,1.08.61.97.48-.14-.11-.33-.29-.31-.35l.33.22c.16-.09.52-.03-.19-.71l-.61-.33-.13-.2.46.34c-.22-.26-.42-.33-.64-.43-.02-.07-.08-.15-.18-.25l-.63-.27c-.03-.1.32.07-.03-.22-.31-.1.18.28-.3.05-.24-.23-.12-.24-.49-.38-.02-.06.06-.05.2.02-.32-.13-.79-.45-.99-.47-.25-.26-1-.58-.91-.68-.12-.01-.6-.15-.89-.28.6.08-1.06-.52-.84-.64-.44-.06-1.46-.51-2.21-.68.04,0,.13,0,.19.03-.4-.16-.5-.25-.74-.37-.09.1-.73-.06-1.1-.05-.47-.26.35-.08.23-.25,0,.12-.91-.11-.76.02-.37-.18-.32-.12-.49-.29-.11.15-.37-.06-.71-.04-.55-.2-.11-.19-.75-.24-.29-.1.28-.07.28-.07Zm-14.82,1.6h0c.12-.05.23-.08.29-.11-.06.02-.14.05-.29.11Zm-1.16.48c.14-.06.32-.14.5-.22.05.01.02.07-.09.12.05-.05-.22.05-.41.1Zm2.71-.27c-.18.08-.25.08-.28.07.09-.03.19-.07.32-.12l.02-.02s-.03.05-.06.07Z"/><path d="m24.01,6.18s.04-.02.07-.03c-.04,0-.08.01-.12.02l-.06.05s.07-.02.1-.04Z"/><path d="m58.05,38.35v.03s0-.04.02-.05c0,.02-.01.02-.02.03Z"/><polygon points="8.04 17.94 8.06 17.96 8.1 17.85 8.04 17.94"/><path d="m59.19,31.58s.02-.04.02-.09c0,0-.01.04-.02.09Z"/><path d="m59.01,28.59v-.43c0,.19,0,.32,0,.43Z"/><path d="m58.69,26.31s-.04-.03-.05-.04h0s.05.04.05.04Z"/><path d="m43.47,56.77l-.08.04c-.18.1-.06.04.08-.04Z"/><path d="m52.05,50.15l-.2.29c.14-.14.24-.25.2-.29Z"/><polygon points="31.61 59.48 31.62 59.48 31.54 59.48 31.61 59.48"/><path d="m51.51,50.81c.15-.13.25-.25.35-.37-.11.11-.25.24-.35.37Z"/><path d="m55.01,17.07l-.05-.1s-.01,0-.02,0l.07.1Z"/><path d="m54.93,16.97l-.07-.1s.06.09.07.1Z"/><path d="m54.7,16.66c.06.06.11.14.16.21-.05-.08-.1-.18-.16-.21Z"/><path d="m56.46,19.76l.05.02s-.03-.02-.05-.02Z"/><path d="m56.87,20.59c-.09-.2-.17-.53-.33-.8h-.04c.11.09.22.64.37.8Z"/><path d="m57.76,24.35l-.19-.74c0,.14,0,.32-.11,0,.16.96.03-.22.29.75Z"/><path d="m58.26,26.67c-.1-.4-.05.02-.08,0,.09.25.11.31.08,0Z"/><path d="m56.18,43.35l-.06-.08c-.13.29.03.02.06.08Z"/><polygon points="54.99 46.46 55.21 46.23 55.22 46.06 54.99 46.46"/><polygon points="53.36 47.69 53.43 47.58 53.14 48.01 53.36 47.69"/><path d="m28.32,58.34l.08.13c.21.01.27-.11-.08-.13Z"/><path d="m16.83,54.11c-.08-.13-.33-.37-.54-.45.22.17.41.38.54.45Z"/><polygon points="7.34 21.3 7.27 21.54 7.44 21.11 7.34 21.3"/></g><g><path d="m46.57,33.41h-7.33c0-.3-.24-.53-.53-.53h-1.34s-.01,0-.01-.01v-3.53c0-.29-.24-.53-.53-.53h-.43s-.01,0-.01-.01v-2.65c0-.29-.24-.53-.53-.53h-.28s-.01,0-.01-.01c-.02-1.59-.99-2.95-2.34-3.51h.03c.18,0,.33-.15.33-.33v-.04c0-.18-.15-.33-.33-.33h-.62s.03-.09.03-.13v-1.17c0-.21-.17-.39-.39-.39h-.07s-.01,0-.01-.01v-1.16c0-.18-.15-.33-.33-.33h-.04c-.18,0-.33.15-.33.33v1.16s0,.01-.01.01h-.07c-.21,0-.39.17-.39.39v1.17s0,.09.03.13h-.62c-.18,0-.33.15-.33.33v.04c0,.18.15.33.33.33h.03c-1.35.56-2.31,1.92-2.34,3.51,0,0,0,.01-.01.01h-.28c-.29,0-.53.24-.53.53v2.65s0,.01-.01.01h-.43c-.29,0-.53.24-.53.53v3.53s0,.01-.01.01h-1.34c-.29,0-.53.24-.53.53h0s-7.3,0-7.3,0c-.28,0-.52.23-.52.52v8.19c0,.29.23.52.52.52h7.36c.09.17.26.28.46.28h13.73c.2,0,.37-.11.46-.28h7.4c.29,0,.52-.23.52-.52v-8.19c0-.29-.23-.52-.52-.52Zm-14.73-10.95c1.68,0,3.05,1.41,3.09,3.14,0,0,0,.01-.01.01h-6.15s-.01,0-.01-.01c.03-1.74,1.4-3.14,3.09-3.14Zm-3.9,3.81s0-.01.01-.01h7.78s.01,0,.01.01v2.51s0,.01-.01.01h-1.6s0-.02,0-.03v-1.09c0-.18-.15-.33-.33-.33h-.04c-.18,0-.33.15-.33.33v1.09s0,.02,0,.03h-1.25s0-.02,0-.03v-1.09c0-.18-.15-.33-.33-.33h-.04c-.18,0-.33.15-.33.33v1.09s0,.02,0,.03h-1.25s0-.02,0-.03v-1.09c0-.18-.15-.33-.33-.33h-.04c-.18,0-.33.15-.33.33v1.09s0,.02,0,.03h-1.6s-.01,0-.01-.01v-2.51Zm-.97,3.19s0-.01.01-.01h9.72s.01,0,.01.01v3.4s0,.01-.01.01h-.58s-.01,0-.01-.01v-1.92c0-.18-.15-.33-.33-.33h-.04c-.18,0-.33.15-.33.33v1.92s0,.01-.01.01h-1.22s-.01,0-.01-.01v-1.92c0-.18-.15-.33-.33-.33h-.04c-.18,0-.33.15-.33.33v1.65s0,.01-.02,0l-1.22-.65s0,0,0,0v-1c0-.18-.15-.33-.33-.33h-.04c-.18,0-.33.15-.33.33v.97s0,0,0,0l-1.22.67s-.02,0-.02,0v-1.65c0-.18-.15-.33-.33-.33h-.04c-.18,0-.33.15-.33.33v1.92s0,.01-.01.01h-1.16s-.01,0-.01-.01v-1.92c0-.18-.15-.33-.33-.33h-.04c-.18,0-.33.15-.33.33v1.92s0,.01-.01.01h-.69s-.01,0-.01-.01v-3.4Zm.98,5.19s-.02-.02,0-.02l3.19-1.76s0,0,0,0l.47-.26c.14-.08.37-.08.51,0l1.9,1.03s.03.02.04.03l1.78.96s0,.02,0,.02h-7.89Zm7.55.66v3.73s0,.01-.01.01h-1.99s-.01,0-.01-.01v-3.73s0-.01.01-.01h1.99s.01,0,.01.01Zm-2.66,0v3.73s0,.01-.01.01h-1.99s-.01,0-.01-.01v-3.73s0-.01.01-.01h1.99s.01,0,.01.01Zm-2.66,0v3.73s0,.01-.01.01h-1.99s-.01,0-.01-.01v-3.73s0-.01.01-.01h1.99s.01,0,.01.01Zm-5.08-1.78h3.47s.02.02,0,.02l-1.35.74c-.22.12-.35.37-.29.61.06.24.27.39.51.39h.08v3.74s0,.01-.01.01h-2.42s-.01,0-.01-.01v-5.11s0,0,0,0v-.39s0-.01.01-.01Zm-2.23,6.44c-.18,0-.32.14-.32.32v1.7h-1.36v-1.7c0-.18-.14-.32-.32-.32s-.32.14-.32.32v1.7h-1.36v-1.7c0-.18-.14-.32-.32-.32s-.32.14-.32.32v1.7h-1.26v-7.94h7.17v7.94h-1.26v-1.7c0-.18-.14-.32-.32-.32Zm2.22,1.93v-2.19s0-.01.01-.01h1.13s.01,0,0,.02l-1.13,2.19s-.02,0-.02,0Zm12.63.38h-12.06s-.01,0,0-.02l1.32-2.56s0,0,0,0h9.42s0,0,0,0l1.32,2.56s0,.02,0,.02Zm.86,0h-.12l-1.33-2.56s0-.02,0-.02h1.42s.01,0,.01.01v2.57Zm0-3.24s0,.01-.01.01h-2.42s-.01,0-.01-.01v-3.73s0-.01.01-.01h.15c.24,0,.47-.15.54-.38.07-.25-.03-.5-.26-.62l-1.41-.76s0-.02,0-.02h3.39s.01,0,.01.01v5.5Zm7.85,2.96h-1.26v-1.7c0-.18-.14-.32-.32-.32s-.32.14-.32.32v1.7h-1.36v-1.7c0-.18-.14-.32-.32-.32s-.32.14-.32.32v1.7h-1.36v-1.7c0-.18-.14-.32-.32-.32s-.32.14-.32.32v1.7h-1.26v-7.94h7.17v7.94Z"/><path d="m40.85,38.84c.18,0,.32-.14.32-.32v-1c0-.18-.14-.32-.32-.32s-.32.14-.32.32v1c0,.18.14.32.32.32Z"/><path d="m40.85,36.23h0c.18,0,.32-.14.32-.32v-.07c0-.18-.14-.32-.32-.32-.18,0-.32.14-.32.32v.07c0,.18.14.32.32.32Z"/><path d="m42.86,38.84c.18,0,.32-.14.32-.32v-1c0-.18-.14-.32-.32-.32s-.32.14-.32.32v1c0,.18.14.32.32.32Z"/><path d="m42.86,36.23c.18,0,.32-.14.32-.32v-.07c0-.18-.14-.32-.32-.32-.18,0-.32.14-.32.32v.07c0,.18.14.32.32.32Z"/><path d="m44.87,38.84h0c.18,0,.32-.14.32-.32v-1c0-.18-.14-.32-.32-.32s-.32.14-.32.32v1c0,.18.14.32.32.32Z"/><path d="m44.87,36.23h0c.18,0,.32-.14.32-.32v-.07c0-.18-.14-.32-.32-.32-.18,0-.32.14-.32.32v.07c0,.18.14.32.32.32Z"/><path d="m18.87,37.2c-.18,0-.32.14-.32.32v1c0,.18.14.32.32.32.18,0,.32-.14.32-.32v-1c0-.18-.14-.32-.32-.32Z"/><path d="m18.87,35.52c-.18,0-.32.14-.32.32v.07c0,.18.14.32.32.32h0c.18,0,.32-.14.32-.32v-.07c0-.18-.14-.32-.32-.32Z"/><path d="m20.87,37.2c-.18,0-.32.14-.32.32v1c0,.18.14.32.32.32.18,0,.32-.14.32-.32v-1c0-.18-.14-.32-.32-.32Z"/><path d="m20.87,36.23c.18,0,.32-.14.32-.32v-.07c0-.18-.14-.32-.32-.32-.18,0-.32.14-.32.32v.07c0,.18.14.32.32.32Z"/><path d="m23.2,37.52c0-.18-.14-.32-.32-.32s-.32.14-.32.32v1c0,.18.14.32.32.32h0c.18,0,.32-.14.32-.32v-1Z"/><path d="m22.88,36.23h0c.18,0,.32-.14.32-.32v-.07c0-.18-.14-.32-.32-.32-.18,0-.32.14-.32.32v.07c0,.18.14.32.32.32Z"/></g></symbol>
</svg>